<?xml version="1.0" encoding="UTF-8" standalone="no"?>
<svg
   viewBox="0 0 24 24"
   version="1.1"
   id="svg4"
   sodipodi:docname="calendar-check-outline.svg"
   inkscape:version="1.1.2 (0a00cf5339, 2022-02-04)"
   xmlns:inkscape="http://www.inkscape.org/namespaces/inkscape"
   xmlns:sodipodi="http://sodipodi.sourceforge.net/DTD/sodipodi-0.dtd"
   xmlns="http://www.w3.org/2000/svg"
   xmlns:svg="http://www.w3.org/2000/svg">
  <defs
     id="defs8" />
  <sodipodi:namedview
     id="namedview6"
     pagecolor="#ffffff"
     bordercolor="#666666"
     borderopacity="1.0"
     inkscape:pageshadow="2"
     inkscape:pageopacity="0.0"
     inkscape:pagecheckerboard="0"
     showgrid="false"
     inkscape:zoom="35.166667"
     inkscape:cx="11.985782"
     inkscape:cy="12.014218"
     inkscape:window-width="1850"
     inkscape:window-height="1016"
     inkscape:window-x="70"
     inkscape:window-y="27"
     inkscape:window-maximized="1"
     inkscape:current-layer="svg4" />
  <path
     d="M19 3H18V1H16V3H8V1H6V3H5C3.9 3 3 3.9 3 5V19C3 20.11 3.9 21 5 21H19C20.11 21 21 20.11 21 19V5C21 3.9 20.11 3 19 3M19 19H5V9H19V19M5 7V5H19V7H5M10.56 17.46L16.5 11.53L15.43 10.47L10.56 15.34L8.45 13.23L7.39 14.29L10.56 17.46Z"
     id="path2" />
  <path
     style="fill:#c6afe9;stroke-width:0.0028436"
     d="M 5.0189573,13.990521 V 9 H 12 18.981043 v 4.990521 4.990522 H 12 5.0189573 Z m 8.5307847,0.511869 2.971442,-2.971543 -0.547337,-0.547337 -0.547337,-0.547337 -2.438476,2.438353 -2.438477,2.438353 -1.0519113,-1.0522 -1.0519118,-1.0522 -0.5403088,0.540309 -0.5403087,0.540309 1.5922281,1.592418 c 0.8757254,0.87583 1.5986925,1.592419 1.6065925,1.592419 0.0079,0 1.351513,-1.337195 2.985805,-2.971544 z"
     id="path47" />
  <path
     style="fill:#c6afe9;stroke-width:0.0028436"
     d="M 5.0189573,6 V 5.0189573 H 12 18.981043 V 6 6.9810427 H 12 5.0189573 Z"
     id="path86" />
</svg>
