<?xml version="1.0" encoding="UTF-8" standalone="no"?>
<svg
   viewBox="0 0 24 24"
   version="1.1"
   id="svg4"
   sodipodi:docname="card-account-details-outline.svg"
   inkscape:version="1.1.2 (0a00cf5339, 2022-02-04)"
   xmlns:inkscape="http://www.inkscape.org/namespaces/inkscape"
   xmlns:sodipodi="http://sodipodi.sourceforge.net/DTD/sodipodi-0.dtd"
   xmlns="http://www.w3.org/2000/svg"
   xmlns:svg="http://www.w3.org/2000/svg">
  <defs
     id="defs8" />
  <sodipodi:namedview
     id="namedview6"
     pagecolor="#ffffff"
     bordercolor="#666666"
     borderopacity="1.0"
     inkscape:pageshadow="2"
     inkscape:pageopacity="0.0"
     inkscape:pagecheckerboard="0"
     showgrid="false"
     inkscape:zoom="35.166667"
     inkscape:cx="11.985782"
     inkscape:cy="12.014218"
     inkscape:window-width="1850"
     inkscape:window-height="1016"
     inkscape:window-x="70"
     inkscape:window-y="27"
     inkscape:window-maximized="1"
     inkscape:current-layer="svg4" />
  <path
     d="M22,3H2C0.91,3.04 0.04,3.91 0,5V19C0.04,20.09 0.91,20.96 2,21H22C23.09,20.96 23.96,20.09 24,19V5C23.96,3.91 23.09,3.04 22,3M22,19H2V5H22V19M14,17V15.75C14,14.09 10.66,13.25 9,13.25C7.34,13.25 4,14.09 4,15.75V17H14M9,7A2.5,2.5 0 0,0 6.5,9.5A2.5,2.5 0 0,0 9,12A2.5,2.5 0 0,0 11.5,9.5A2.5,2.5 0 0,0 9,7M14,7V8H20V7H14M14,9V10H20V9H14M14,11V12H18V11H14"
     id="path2" />
  <path
     style="fill:#ccaaff;stroke-width:0.028436"
     d="M 2.0047393,12 V 5.0189573 H 12 21.995261 V 12 18.981043 H 12 2.0047393 Z m 11.9999997,4.282154 c 0,-0.843042 -0.01867,-0.947434 -0.226534,-1.266472 -0.503907,-0.773425 -1.922473,-1.41881 -3.730732,-1.697319 -0.5393845,-0.08308 -1.4874735,-0.08992 -2.0000796,-0.01445 -1.9282638,0.283921 -3.4142864,0.975449 -3.8891398,1.809828 -0.1464586,0.257347 -0.1629929,0.37614 -0.1629929,1.171038 v 0.734175 H 9 14.004739 Z M 9.4393971,11.971006 c 0.529035,-0.09226 0.9313549,-0.303843 1.3236359,-0.696124 0.509948,-0.509948 0.739337,-1.061364 0.739337,-1.7772517 0,-0.6599397 -0.222234,-1.2343965 -0.659705,-1.7052842 C 10.352316,7.2645403 9.7359353,6.9992437 9,6.9992437 c -0.5682045,0 -0.9865413,0.1279014 -1.4371092,0.4393787 -1.0786143,0.7456455 -1.3885891,2.2107693 -0.712268,3.3666016 0.1560228,0.266643 0.5702983,0.683164 0.8332454,0.837761 0.5505312,0.32368 1.1442582,0.434618 1.7555289,0.328021 z M 18.014218,11.50237 v -0.511849 h -2.018957 -2.018958 v 0.511849 0.511848 h 2.018958 2.018957 z M 20.004739,9.5118483 V 9 h -3.014218 -3.014218 v 0.5118483 0.5118487 h 3.014218 3.014218 z m 0,-2.0189573 V 6.9810427 H 16.990521 13.976303 V 7.492891 8.0047393 h 3.014218 3.014218 z"
     id="path47" />
</svg>
