<?xml version="1.0" encoding="UTF-8" standalone="no"?>
<svg
   viewBox="0 0 24 24"
   version="1.1"
   id="svg4"
   sodipodi:docname="chat-question-outline.svg"
   inkscape:version="1.1.2 (0a00cf5339, 2022-02-04)"
   xmlns:inkscape="http://www.inkscape.org/namespaces/inkscape"
   xmlns:sodipodi="http://sodipodi.sourceforge.net/DTD/sodipodi-0.dtd"
   xmlns="http://www.w3.org/2000/svg"
   xmlns:svg="http://www.w3.org/2000/svg">
  <defs
     id="defs8" />
  <sodipodi:namedview
     id="namedview6"
     pagecolor="#ffffff"
     bordercolor="#666666"
     borderopacity="1.0"
     inkscape:pageshadow="2"
     inkscape:pageopacity="0.0"
     inkscape:pagecheckerboard="0"
     showgrid="false"
     inkscape:zoom="35.166667"
     inkscape:cx="11.985782"
     inkscape:cy="12.014218"
     inkscape:window-width="1850"
     inkscape:window-height="1016"
     inkscape:window-x="70"
     inkscape:window-y="27"
     inkscape:window-maximized="1"
     inkscape:current-layer="svg4" />
  <path
     d="M12 3C6.5 3 2 6.6 2 11C2 13.2 3.1 15.2 4.8 16.5C4.8 17.1 4.4 18.7 2 21C4.4 20.9 6.6 20 8.5 18.5C9.6 18.8 10.8 19 12 19C17.5 19 22 15.4 22 11S17.5 3 12 3M12 17C7.6 17 4 14.3 4 11S7.6 5 12 5 20 7.7 20 11 16.4 17 12 17M12.2 6.5C11.3 6.5 10.6 6.7 10.1 7C9.5 7.4 9.2 8 9.3 8.7H11.3C11.3 8.4 11.4 8.2 11.6 8.1C11.8 8 12 7.9 12.3 7.9C12.6 7.9 12.9 8 13.1 8.2C13.3 8.4 13.4 8.6 13.4 8.9C13.4 9.2 13.3 9.4 13.2 9.6C13 9.8 12.8 10 12.6 10.1C12.1 10.4 11.7 10.7 11.5 10.9C11.1 11.2 11 11.5 11 12H13C13 11.7 13.1 11.5 13.1 11.3C13.2 11.1 13.4 11 13.6 10.8C14.1 10.6 14.4 10.3 14.7 9.9C15 9.5 15.1 9.1 15.1 8.7C15.1 8 14.8 7.4 14.3 7C13.9 6.7 13.1 6.5 12.2 6.5M11 13V15H13V13H11Z"
     id="path2" />
  <path
     style="fill:#c6afe9;stroke-width:0.0028436"
     d="M 11.265816,16.962394 C 9.9133271,16.856034 8.6970034,16.527664 7.5783154,15.966883 5.6100918,14.980243 4.3219735,13.393493 4.0640279,11.63786 4.001067,11.209335 4.0214416,10.499996 4.1083501,10.094787 4.3228861,9.0945159 4.8091424,8.2395765 5.6290179,7.4211368 6.9075853,6.1448084 8.7293437,5.328001 10.862559,5.0746149 c 0.427856,-0.050821 1.439749,-0.066664 1.905214,-0.029829 1.312296,0.1038498 2.462504,0.4082966 3.554502,0.9408357 0.823186,0.401447 1.459391,0.8472314 2.048707,1.4355152 0.818323,0.8168894 1.304293,1.6728866 1.521749,2.6804372 0.0858,0.397557 0.105859,1.110095 0.04324,1.536286 -0.257875,1.755155 -1.546427,3.343456 -3.510681,4.32735 -1.002126,0.501966 -2.067512,0.814886 -3.245196,0.953165 -0.46009,0.05402 -1.48685,0.07763 -1.914279,0.04402 z m 1.743663,-2.971873 V 12.981043 H 12 10.990521 V 13.990521 15 H 12 13.009479 Z m -2.56e-4,-2.026066 c -1.42e-4,-0.02737 0.02679,-0.196919 0.05984,-0.376777 l 0.0601,-0.327014 0.217408,-0.208279 c 0.14346,-0.137437 0.291011,-0.245674 0.433803,-0.31822 0.382857,-0.194512 0.737554,-0.525237 1.005944,-0.9379565 0.48648,-0.7480894 0.424531,-1.7553352 -0.152628,-2.4816294 -0.318527,-0.4008267 -0.682149,-0.5914606 -1.409452,-0.738922 -0.276643,-0.05609 -0.399451,-0.063637 -1.025193,-0.063003 -0.628018,6.358e-4 -0.744678,0.00811 -1.000618,0.06412 -0.3554,0.077775 -0.728247,0.2065236 -0.982158,0.3391543 C 9.858503,7.1028087 9.50561,7.4915316 9.37373,7.8440124 9.2999485,8.0412111 9.2531283,8.3850481 9.2749584,8.5693686 l 0.017324,0.1462712 h 1.0042286 1.00423 l 0.0179,-0.1066351 c 0.05344,-0.3183145 0.128259,-0.4137423 0.438587,-0.55937 0.521825,-0.2448774 1.102734,-0.133709 1.423802,0.2724731 0.153791,0.1945601 0.208247,0.3785769 0.191129,0.6458553 -0.0079,0.1227922 -0.04163,0.2908846 -0.07784,0.3874871 -0.09279,0.2475552 -0.41534,0.5561491 -0.891665,0.8530808 -0.612247,0.381663 -1.159658,0.848333 -1.283416,1.094118 -0.07805,0.155009 -0.128715,0.379678 -0.128715,0.570789 v 0.14078 H 12 c 0.94255,0 1.009461,-0.0033 1.009218,-0.04976 z"
     id="path47" />
</svg>
