<?xml version="1.0" encoding="UTF-8" standalone="no"?>
<svg
   viewBox="0 0 24 24"
   version="1.1"
   id="svg4"
   sodipodi:docname="cog-outline.svg"
   inkscape:version="1.1.2 (0a00cf5339, 2022-02-04)"
   xmlns:inkscape="http://www.inkscape.org/namespaces/inkscape"
   xmlns:sodipodi="http://sodipodi.sourceforge.net/DTD/sodipodi-0.dtd"
   xmlns="http://www.w3.org/2000/svg"
   xmlns:svg="http://www.w3.org/2000/svg">
  <defs
     id="defs8" />
  <sodipodi:namedview
     id="namedview6"
     pagecolor="#ffffff"
     bordercolor="#666666"
     borderopacity="1.0"
     inkscape:pageshadow="2"
     inkscape:pageopacity="0.0"
     inkscape:pagecheckerboard="0"
     showgrid="false"
     inkscape:zoom="35.166667"
     inkscape:cx="11.985782"
     inkscape:cy="12.014218"
     inkscape:window-width="1850"
     inkscape:window-height="1016"
     inkscape:window-x="70"
     inkscape:window-y="27"
     inkscape:window-maximized="1"
     inkscape:current-layer="svg4" />
  <path
     d="M12,8A4,4 0 0,1 16,12A4,4 0 0,1 12,16A4,4 0 0,1 8,12A4,4 0 0,1 12,8M12,10A2,2 0 0,0 10,12A2,2 0 0,0 12,14A2,2 0 0,0 14,12A2,2 0 0,0 12,10M10,22C9.75,22 9.54,21.82 9.5,21.58L9.13,18.93C8.5,18.68 7.96,18.34 7.44,17.94L4.95,18.95C4.73,19.03 4.46,18.95 4.34,18.73L2.34,15.27C2.21,15.05 2.27,14.78 2.46,14.63L4.57,12.97L4.5,12L4.57,11L2.46,9.37C2.27,9.22 2.21,8.95 2.34,8.73L4.34,5.27C4.46,5.05 4.73,4.96 4.95,5.05L7.44,6.05C7.96,5.66 8.5,5.32 9.13,5.07L9.5,2.42C9.54,2.18 9.75,2 10,2H14C14.25,2 14.46,2.18 14.5,2.42L14.87,5.07C15.5,5.32 16.04,5.66 16.56,6.05L19.05,5.05C19.27,4.96 19.54,5.05 19.66,5.27L21.66,8.73C21.79,8.95 21.73,9.22 21.54,9.37L19.43,11L19.5,12L19.43,13L21.54,14.63C21.73,14.78 21.79,15.05 21.66,15.27L19.66,18.73C19.54,18.95 19.27,19.04 19.05,18.95L16.56,17.95C16.04,18.34 15.5,18.68 14.87,18.93L14.5,21.58C14.46,21.82 14.25,22 14,22H10M11.25,4L10.88,6.61C9.68,6.86 8.62,7.5 7.85,8.39L5.44,7.35L4.69,8.65L6.8,10.2C6.4,11.37 6.4,12.64 6.8,13.8L4.68,15.36L5.43,16.66L7.86,15.62C8.63,16.5 9.68,17.14 10.87,17.38L11.24,20H12.76L13.13,17.39C14.32,17.14 15.37,16.5 16.14,15.62L18.57,16.66L19.32,15.36L17.2,13.81C17.6,12.64 17.6,11.37 17.2,10.2L19.31,8.65L18.56,7.35L16.15,8.39C15.38,7.5 14.32,6.86 13.12,6.62L12.75,4H11.25Z"
     id="path2" />
  <path
     style="fill:#ccaaff;stroke-width:0.028436"
     d="m 11.246445,19.958257 c 0,-0.03515 -0.342416,-2.471064 -0.355883,-2.531719 -0.01047,-0.04715 -0.04617,-0.06858 -0.152048,-0.09129 C 10.503731,17.284898 10.051286,17.131774 9.762606,17.004966 9.2072673,16.761025 8.6517899,16.379313 8.1547083,15.900054 L 7.8483412,15.604672 6.6682464,16.111809 c -0.6490521,0.278926 -1.193578,0.507567 -1.2100575,0.508091 -0.028359,9.02e-4 -0.7662674,-1.247129 -0.7469425,-1.26331 0.00502,-0.0042 0.3226399,-0.237344 0.7058152,-0.518086 0.6354066,-0.465544 1.3656643,-1.002149 1.3882895,-1.020137 0.00503,-0.004 -0.029988,-0.146045 -0.077815,-0.315661 C 6.5681031,12.937277 6.5408381,12.717826 6.5408381,12 c 0,-0.717826 0.027265,-0.937277 0.1866983,-1.502706 0.047827,-0.169616 0.082843,-0.311881 0.077815,-0.316145 C 6.8003227,10.176886 6.3547393,9.8498164 5.8151659,9.4543282 5.2755924,9.0588404 4.8071437,8.7144333 4.7741688,8.6889793 4.7146169,8.6430102 4.7165678,8.6386169 5.0647939,8.0345161 5.2576126,7.7000153 5.4260752,7.4156309 5.4391553,7.4025509 c 0.01308,-0.01308 0.5592782,0.2071169 1.2137735,0.4893267 L 7.8429205,8.4049865 8.1299912,8.1246847 C 8.2878799,7.9705186 8.5066351,7.7731982 8.6161137,7.6861945 9.1781465,7.2395426 9.9018483,6.8778273 10.592417,6.6984133 l 0.298578,-0.077572 0.184396,-1.2985721 0.184396,-1.2985721 h 0.740185 0.740185 l 0.182532,1.3040874 0.182532,1.3040874 0.215162,0.0504 c 0.118339,0.02772 0.338643,0.093226 0.489563,0.1455686 0.780416,0.2706657 1.399892,0.6576802 2.032705,1.2699224 l 0.316585,0.3062938 1.188913,-0.512644 c 0.653903,-0.2819539 1.199616,-0.5019418 1.212696,-0.4888618 0.01308,0.01308 0.181542,0.2974644 0.374361,0.6319652 0.348226,0.6041008 0.350177,0.6084941 0.290625,0.6544632 -0.03298,0.025454 -0.501423,0.3698611 -1.040997,0.7653489 -0.539573,0.3954882 -0.985157,0.7225578 -0.990185,0.7268208 -0.005,0.0043 0.02999,0.146529 0.07782,0.316145 0.160812,0.57032 0.187094,0.783685 0.186854,1.516924 -2.27e-4,0.720874 -0.03224,0.968348 -0.200035,1.54653 -0.04033,0.13898 -0.06292,0.26226 -0.05019,0.273956 0.01273,0.0117 0.483802,0.357319 1.046835,0.768053 0.563033,0.410733 1.027802,0.750089 1.03282,0.754124 0.02008,0.01615 -0.716549,1.263906 -0.745637,1.263019 -0.01719,-5.24e-4 -0.562301,-0.229287 -1.211353,-0.508361 l -1.180095,-0.507408 -0.298578,0.290011 c -0.48398,0.470091 -1.033762,0.850431 -1.606751,1.11155 -0.260342,0.118641 -0.829192,0.31158 -1.001408,0.33965 -0.106814,0.01741 -0.121747,0.02946 -0.135844,0.109621 -0.02164,0.123062 -0.355523,2.46913 -0.355523,2.498133 0,0.01276 -0.3391,0.02321 -0.753555,0.02321 -0.414455,0 -0.753555,-0.0081 -0.753555,-0.01805 z m 1.450237,-4.009274 c 1.396326,-0.225204 2.609866,-1.257668 3.095312,-2.633452 0.287074,-0.813586 0.287074,-1.817476 0,-2.631062 -0.478927,-1.3573086 -1.617296,-2.3433617 -3.029915,-2.6245078 -0.43114,-0.085808 -1.093018,-0.085808 -1.524158,0 C 10.469426,8.2129106 9.7932048,8.5624632 9.236818,9.0943723 8.4231043,9.8722877 7.9953685,10.873408 7.9953685,12 c 0,1.126592 0.4277358,2.127712 1.2414495,2.905628 0.923641,0.883007 2.153861,1.253991 3.459864,1.043355 z"
     id="path47" />
</svg>
