<?xml version="1.0" encoding="UTF-8" standalone="no"?>
<svg
   viewBox="0 0 24 24"
   version="1.1"
   id="svg4"
   sodipodi:docname="history.svg"
   inkscape:version="1.1.2 (0a00cf5339, 2022-02-04)"
   xmlns:inkscape="http://www.inkscape.org/namespaces/inkscape"
   xmlns:sodipodi="http://sodipodi.sourceforge.net/DTD/sodipodi-0.dtd"
   xmlns="http://www.w3.org/2000/svg"
   xmlns:svg="http://www.w3.org/2000/svg">
  <defs
     id="defs8">
    <inkscape:path-effect
       effect="bspline"
       id="path-effect5318"
       is_visible="true"
       lpeversion="1"
       weight="33.333333"
       steps="2"
       helper_size="0"
       apply_no_weight="true"
       apply_with_weight="true"
       only_selected="false" />
    <inkscape:path-effect
       effect="bspline"
       id="path-effect2947"
       is_visible="true"
       lpeversion="1"
       weight="33.333333"
       steps="2"
       helper_size="0"
       apply_no_weight="true"
       apply_with_weight="true"
       only_selected="false" />
    <inkscape:path-effect
       effect="bspline"
       id="path-effect220"
       is_visible="true"
       lpeversion="1"
       weight="33.333333"
       steps="2"
       helper_size="0"
       apply_no_weight="true"
       apply_with_weight="true"
       only_selected="false" />
  </defs>
  <sodipodi:namedview
     id="namedview6"
     pagecolor="#ffffff"
     bordercolor="#666666"
     borderopacity="1.0"
     inkscape:pageshadow="2"
     inkscape:pageopacity="0.0"
     inkscape:pagecheckerboard="0"
     showgrid="false"
     inkscape:zoom="45.254834"
     inkscape:cx="12.142349"
     inkscape:cy="13.73334"
     inkscape:window-width="1850"
     inkscape:window-height="1016"
     inkscape:window-x="70"
     inkscape:window-y="27"
     inkscape:window-maximized="1"
     inkscape:current-layer="svg4" />
  <path
     style="fill:#ff00ff;stroke:#000000;stroke-width:1px;stroke-linecap:butt;stroke-linejoin:miter;stroke-opacity:1;fill-opacity:1;opacity:0"
     d="M 8.06,16.94 C 7.6775551,16.57153 7.2941102,16.20206 6.9096654,15.83159 6.7423051,15.408632 6.5739515,14.984691 6.4045945,14.559742"
     id="path218" />
  <path
     style="opacity:0;fill:#ff00ff;fill-opacity:1;stroke-width:0.014218"
     d="M 12.454976,20.978039 C 10.308222,20.840373 8.3583236,19.987797 6.8033175,18.506901 l -0.1492891,-0.142174 0.7025571,-0.703695 0.7025571,-0.703694 0.1718505,0.159004 c 0.3707715,0.343056 0.712369,0.605381 1.102981,0.847018 0.9685769,0.599172 2.0306039,0.941402 3.1831949,1.02576 0.494581,0.0362 1.187845,6.24e-4 1.686622,-0.08655 2.570388,-0.449226 4.673814,-2.284503 5.472529,-4.77488 0.220207,-0.686599 0.325965,-1.380513 0.325362,-2.134802 C 20.000801,10.884973 19.761495,9.8638374 19.272603,8.8817849 18.39262,7.1141373 16.849507,5.8262347 14.943128,5.2683471 14.357719,5.0970315 13.801565,5.0143113 13.14987,5.0016251 12.457786,4.9881526 11.933878,5.0458686 11.2891,5.2066157 10.22568,5.4717327 9.2558754,5.9781952 8.3937461,6.7186611 8.1756808,6.9059531 7.7870969,7.3052635 7.5952747,7.5391733 6.6111741,8.7391959 6.0585424,10.197956 5.9982636,11.754739 l -0.00977,0.25237 1.498645,1.45e-4 1.4986452,1.45e-4 -0.3625592,0.358456 c -0.1994076,0.19715 -1.1050282,1.099442 -2.01249,2.005093 L 4.960802,16.017587 3.8744248,14.911637 C 3.2769173,14.303365 2.4357249,13.447393 2.0051082,13.009479 1.5744915,12.571564 1.1780623,12.166884 1.1241545,12.11019 L 1.0261404,12.007109 H 2.5127581 3.9993758 L 4.00861,11.783175 C 4.0631802,10.459814 4.3190053,9.3631076 4.8369279,8.2322275 5.4020309,6.9983289 6.2952264,5.85616 7.3736937,4.9883516 L 7.5388568,4.8554502 h 5.4613122 5.461312 l 0.174472,0.1402079 c 1.83331,1.4732635 3.023783,3.6296473 3.294451,5.9674639 0.04378,0.378151 0.05775,0.62891 0.05775,1.036878 0,0.407968 -0.01397,0.658727 -0.05775,1.036878 -0.18941,1.635969 -0.823617,3.182065 -1.842617,4.492007 -0.33724,0.433529 -0.829455,0.949892 -1.234706,1.295283 -1.437944,1.225543 -3.172496,1.956637 -5.061612,2.133411 -0.28727,0.02688 -1.053455,0.03861 -1.336493,0.02046 z"
     id="path2645" />
  <path
     style="opacity:0;fill:#ff00ff;fill-opacity:1;stroke-width:0.014218"
     d="M 12.469194,18.972864 C 11.285127,18.87869 10.142276,18.485128 9.1687946,17.836309 8.8271566,17.60861 8.4925405,17.342737 8.2219819,17.084009 L 8.0777116,16.946048 8.2179037,16.7486 8.3580958,16.551152 8.3164887,16.518981 C 8.2936048,16.501287 8.1693128,16.408692 8.0402844,16.313215 7.77138,16.114234 7.4870601,15.840864 7.3835288,15.681751 c -0.1480947,-0.2276 -0.2774323,-0.539638 -0.409286,-0.987438 -0.040295,-0.136849 -0.0758,-0.256705 -0.078902,-0.266348 -0.0031,-0.0096 -0.013879,-0.0148 -0.02395,-0.01145 -0.064286,0.02135 -0.3647566,0.107185 -0.3751969,0.107185 -0.007,0 0.5566821,-0.569432 1.2526208,-1.265403 l 1.265343,-1.265403 H 7.5084601 6.0027623 l 0.00979,-0.245261 C 6.1417421,8.5095249 8.4408201,5.7986715 11.609318,5.1484534 c 0.495838,-0.1017528 0.795646,-0.1293747 1.400161,-0.1290002 0.547578,3.393e-4 0.709815,0.012575 1.151658,0.086856 2.217529,0.3728019 4.122275,1.7955273 5.117703,3.8226009 0.583242,1.1877059 0.819311,2.5519469 0.668047,3.8606389 -0.10083,0.872349 -0.381919,1.769616 -0.789023,2.518644 -0.342351,0.62989 -0.705924,1.116964 -1.214245,1.626704 -0.561498,0.563066 -1.110904,0.960547 -1.813287,1.311869 -0.833032,0.41667 -1.686771,0.653396 -2.621733,0.72696 -0.20944,0.01648 -0.827824,0.01597 -1.039405,-8.62e-4 z m 4.181349,-4.037536 c 0.278587,-0.467508 0.355503,-0.60678 0.341189,-0.617792 -0.01016,-0.0078 -0.799807,-0.478081 -1.754764,-1.045024 L 13.500685,12.241706 13.500342,10.119668 13.5,7.9976303 h -0.753554 -0.753555 l 6.77e-4,2.5059247 6.78e-4,2.505924 2.135578,1.267568 c 1.174569,0.697162 2.14131,1.266283 2.148314,1.264712 0.007,-0.0016 0.174587,-0.274465 0.372405,-0.606431 z"
     id="path2986" />
  <g
     id="g6040">
    <path
       id="path5808"
       style="fill:#000000;fill-opacity:1"
       d="M 13,3 C 8.0294373,3 4,7.0294373 4,12 H 1 l 3.9609375,4.029297 1.4511719,-1.447266 c 0.1646078,0.45676 0.3435584,0.911241 0.6153653,1.304531 0.2740711,0.396566 0.6423795,0.729593 1.0233065,1.062657 L 6.640625,18.359375 C 8.270625,19.999375 10.5,21 13,21 c 4.970563,0 9,-4.029437 9,-9 0,-4.9705627 -4.029437,-9 -9,-9 z m 0,2 c 3.865993,0 7,3.1340068 7,7 0,3.865993 -3.134007,7 -7,7 -1.93,0 -3.6794531,-0.790547 -4.9394531,-2.060547 l -0.00781,0.0078 C 7.1792115,16.236494 6.6482701,15.443259 6.4160156,14.578125 L 9,12 H 6 C 6,8.1340068 9.1340068,5 13,5 Z m -1,3 v 5 L 16.279297,15.539062 17,14.330078 13.5,12.25 V 8 Z"
       sodipodi:nodetypes="sccccsccsssssscccccsccccccc" />
  </g>
  <path
     style="opacity:1;fill:#ddafe9;fill-opacity:1;stroke-width:0.00220971;stroke-miterlimit:4;stroke-dasharray:none"
     d="M 12.462757,18.969765 C 10.860694,18.82656 9.4541684,18.20765 8.2766528,17.127765 8.1558703,17.016997 7.949555,16.832134 7.8181745,16.716959 7.3806893,16.333435 7.0214882,15.8902 6.7970242,15.456912 6.6738179,15.219085 6.4413008,14.663219 6.4413008,14.606504 c 0,-0.01401 0.576734,-0.601175 1.2816311,-1.304819 0.704897,-0.703643 1.281631,-1.287151 1.281631,-1.296684 0,-0.0095 -0.671199,-0.01733 -1.4915534,-0.01733 H 6.0214562 v -0.21863 c 0,-0.996416 0.3451357,-2.2380745 0.8870016,-3.1910717 1.0788878,-1.8974752 2.9341946,-3.1708385 5.0907682,-3.4939758 0.953645,-0.1428926 2.010971,-0.068606 2.955772,0.2076701 2.284513,0.66803 4.080252,2.4647366 4.754492,4.7570554 0.195869,0.665928 0.264737,1.17319 0.264737,1.95 0,0.44798 -0.0096,0.665437 -0.03864,0.872835 -0.223265,1.596069 -0.886575,2.946298 -1.992567,4.056057 -1.122704,1.126527 -2.515901,1.808493 -4.107429,2.010575 -0.326104,0.04141 -1.071162,0.05855 -1.372836,0.03158 z m 4.184865,-4.021597 c 0.195847,-0.328423 0.356086,-0.604927 0.356086,-0.614452 0,-0.0095 -0.785507,-0.484107 -1.745572,-1.054625 l -1.745572,-1.037305 -9.8e-5,-2.126844 -9.7e-5,-2.1268451 h -0.762444 -0.762443 l 0.0056,2.5121831 0.0056,2.512183 0.320408,0.191901 c 0.953116,0.570845 3.946127,2.340937 3.958241,2.340937 0.0078,0 0.174407,-0.26871 0.370255,-0.597133 z"
     id="path6536" />
  <path
     style="fill:#c6afe9;stroke-width:0.00220971"
     d="M 12.241786,18.936633 C 11.087172,18.78643 10.123376,18.436502 9.2034367,17.833493 8.8750592,17.618245 8.6022978,17.402778 8.1538251,17.004356 c -0.950569,-0.844484 -1.2277289,-1.21066 -1.5949694,-2.10723 -0.053928,-0.131658 -0.094981,-0.2575 -0.09123,-0.27965 0.00375,-0.02215 0.576097,-0.612979 1.271879,-1.312955 0.695782,-0.699975 1.2650582,-1.282621 1.2650582,-1.294767 0,-0.0145 -0.5131611,-0.02208 -1.4935563,-0.02208 H 6.0174503 l 0.014221,-0.292787 C 6.0523197,11.269774 6.081814,11.02397 6.1565722,10.653967 6.3803406,9.5464664 6.8475639,8.5382351 7.5455602,7.6566406 7.7815065,7.358632 8.3530009,6.7871376 8.6510095,6.5511913 9.7387967,5.6899434 11.028623,5.1747337 12.416595,5.0470617 c 0.348479,-0.032055 1.136075,-0.013746 1.482473,0.034462 1.285815,0.1789468 2.47107,0.6861203 3.469242,1.4844967 0.31169,0.2493012 0.808628,0.7463053 1.057336,1.0574743 0.875811,1.0957665 1.416918,2.4291133 1.515523,3.7344083 0.02976,0.393939 0.03011,1.034383 7.44e-4,1.347922 -0.04695,0.501256 -0.22533,1.243443 -0.430182,1.789864 -0.515803,1.375847 -1.574744,2.649951 -2.866609,3.449066 -0.901738,0.557792 -2.010918,0.922738 -3.050109,1.003557 -0.373708,0.02906 -1.087388,0.0229 -1.353228,-0.01168 z m 4.226368,-3.67307 c 0.23319,-0.376624 0.535621,-0.898788 0.535281,-0.924196 -1.55e-4,-0.01125 -0.03744,-0.04457 -0.08286,-0.07405 -0.08469,-0.05496 -1.730628,-1.039965 -2.806057,-1.679273 L 13.512369,12.228086 V 10.108092 7.9880969 H 12.750019 11.98767 V 10.5039 13.019703 l 1.421262,0.843674 c 2.394153,1.42119 2.83143,1.678191 2.858604,1.680092 0.0144,10e-4 0.104675,-0.12495 0.200618,-0.279906 z"
     id="path69" />
</svg>
