<?xml version="1.0" encoding="UTF-8" standalone="no"?>
<svg
   viewBox="0 0 24 24"
   version="1.1"
   id="svg4"
   sodipodi:docname="view-dashboard-variant-outline.svg"
   inkscape:version="1.1.2 (0a00cf5339, 2022-02-04)"
   xmlns:inkscape="http://www.inkscape.org/namespaces/inkscape"
   xmlns:sodipodi="http://sodipodi.sourceforge.net/DTD/sodipodi-0.dtd"
   xmlns="http://www.w3.org/2000/svg"
   xmlns:svg="http://www.w3.org/2000/svg">
  <defs
     id="defs8" />
  <sodipodi:namedview
     id="namedview6"
     pagecolor="#ffffff"
     bordercolor="#666666"
     borderopacity="1.0"
     inkscape:pageshadow="2"
     inkscape:pageopacity="0.0"
     inkscape:pagecheckerboard="0"
     showgrid="false"
     inkscape:zoom="35.166667"
     inkscape:cx="9.07109"
     inkscape:cy="12.014218"
     inkscape:window-width="1850"
     inkscape:window-height="1016"
     inkscape:window-x="70"
     inkscape:window-y="27"
     inkscape:window-maximized="1"
     inkscape:current-layer="svg4" />
  <path
     d="M2 5V19H22V5H2M20 12H16V7H20V12M14 10H10V7H14V10M10 12H14V17H10V12M4 7H8V17H4V7M16 17V14H20V17H16Z"
     id="path2"
     style="fill:#000000;fill-opacity:1" />
  <path
     style="fill:#008000;stroke-width:0.028436"
     d="M 4.0236967,12 V 7.0094787 H 6 7.9763033 V 12 16.990521 H 6 4.0236967 Z"
     id="path2543" />
  <path
     style="fill:#00ff00;stroke-width:0.028436"
     d="M 10.023697,8.5023697 V 7.0094787 H 12 13.976303 v 1.492891 1.492891 H 12 10.023697 Z"
     id="path2619" />
  <path
     style="fill:#800080;stroke-width:0.028436"
     d="M 4.0236967,12 V 7.0094787 H 6 7.9763033 V 12 16.990521 H 6 4.0236967 Z"
     id="path2843" />
  <path
     style="fill:#660080;stroke-width:0.028436"
     d="M 4.0236967,12 V 7.0094787 H 6 7.9763033 V 12 16.990521 H 6 4.0236967 Z"
     id="path2919" />
  <path
     style="fill:#00d455;stroke-width:0.028436"
     d="M 10.023697,8.5023697 V 7.0094787 H 12 13.976303 v 1.492891 1.492891 H 12 10.023697 Z"
     id="path2995" />
  <path
     style="fill:#0055d4;stroke-width:0.028436"
     d="M 10.023697,14.50237 V 12.014218 H 12 13.976303 v 2.488152 2.488151 H 12 10.023697 Z"
     id="path3145" />
  <path
     style="fill:#ffdd55;stroke-width:0.028436"
     d="M 16.023697,9.4976303 V 7.0094787 H 18 19.976303 V 9.4976303 11.985782 H 18 16.023697 Z"
     id="path3332" />
  <path
     style="fill:#c83737;stroke-width:0.028436"
     d="M 16.023697,15.49763 V 14.004739 H 18 19.976303 v 1.492891 1.492891 H 18 16.023697 Z"
     id="path3556" />
  <path
     style="fill:#aa87de;stroke-width:0.028436"
     d="M 4.0236966,12 V 7.0094786 H 5.9999999 7.9763032 V 12 16.990521 H 5.9999999 4.0236966 Z"
     id="path51" />
  <path
     style="fill:#80ffb3;stroke-width:0.028436"
     d="M 10.023697,8.5023696 V 7.0094786 H 12 13.976303 v 1.492891 1.492891 H 12 10.023697 Z"
     id="path201" />
  <path
     style="fill:#80e5ff;stroke-width:0.028436"
     d="M 10.023697,14.50237 V 12.014218 H 12 13.976303 v 2.488152 2.488151 H 12 10.023697 Z"
     id="path351" />
  <path
     style="fill:#ffeeaa;stroke-width:0.028436"
     d="M 16.023697,9.4976302 V 7.0094786 H 18 19.976303 V 9.4976302 11.985782 H 18 16.023697 Z"
     id="path427" />
  <path
     style="fill:#ffaaaa;stroke-width:0.028436"
     d="M 16.023697,15.49763 V 14.004739 H 18 19.976303 v 1.492891 1.492891 H 18 16.023697 Z"
     id="path503" />
  <path
     style="fill:#ccaaff;stroke-width:0.028436"
     d="M 4.0236966,12 V 7.0094786 H 5.9999999 7.9763032 V 12 16.990521 H 5.9999999 4.0236966 Z"
     id="path579" />
</svg>
