<?xml version="1.0" encoding="UTF-8" standalone="no"?>
<svg
   viewBox="0 0 24 24"
   version="1.1"
   id="svg4"
   sodipodi:docname="shield-account-outline.svg"
   inkscape:version="1.1.2 (0a00cf5339, 2022-02-04)"
   xmlns:inkscape="http://www.inkscape.org/namespaces/inkscape"
   xmlns:sodipodi="http://sodipodi.sourceforge.net/DTD/sodipodi-0.dtd"
   xmlns="http://www.w3.org/2000/svg"
   xmlns:svg="http://www.w3.org/2000/svg">
  <defs
     id="defs8" />
  <sodipodi:namedview
     id="namedview6"
     pagecolor="#ffffff"
     bordercolor="#666666"
     borderopacity="1.0"
     inkscape:pageshadow="2"
     inkscape:pageopacity="0.0"
     inkscape:pagecheckerboard="0"
     showgrid="false"
     inkscape:zoom="35.166667"
     inkscape:cx="11.985782"
     inkscape:cy="12.014218"
     inkscape:window-width="1850"
     inkscape:window-height="1016"
     inkscape:window-x="70"
     inkscape:window-y="27"
     inkscape:window-maximized="1"
     inkscape:current-layer="svg4" />
  <path
     d="M12,1L3,5V11C3,16.55 6.84,21.74 12,23C17.16,21.74 21,16.55 21,11V5L12,1M12,3.18L19,6.3V11.22C19,12.92 18.5,14.65 17.65,16.17C16,14.94 13.26,14.5 12,14.5C10.74,14.5 8,14.94 6.35,16.17C5.5,14.65 5,12.92 5,11.22V6.3L12,3.18M12,6A3.5,3.5 0 0,0 8.5,9.5A3.5,3.5 0 0,0 12,13A3.5,3.5 0 0,0 15.5,9.5A3.5,3.5 0 0,0 12,6M12,8A1.5,1.5 0 0,1 13.5,9.5A1.5,1.5 0 0,1 12,11A1.5,1.5 0 0,1 10.5,9.5A1.5,1.5 0 0,1 12,8M12,16.5C13.57,16.5 15.64,17.11 16.53,17.84C15.29,19.38 13.7,20.55 12,21C10.3,20.55 8.71,19.38 7.47,17.84C8.37,17.11 10.43,16.5 12,16.5Z"
     id="path2" />
  <path
     style="fill:#ccaaff;stroke-width:0.028436"
     d="M 6.2861652,16.015124 C 6.2475909,15.949302 6.1396898,15.735559 6.0463851,15.540141 5.6459026,14.701365 5.3621772,13.852496 5.1910342,12.981043 5.0350238,12.186644 5.0384709,12.266415 5.0269552,9.1840001 l -0.010733,-2.8728719 3.4921177,-1.556443 3.4921181,-1.5564428 3.49166,1.5563957 3.49166,1.5563956 -0.01073,2.8729192 c -0.01152,3.0825841 -0.0081,3.0031681 -0.164127,3.7970901 -0.12122,0.616747 -0.313832,1.270139 -0.553251,1.876777 -0.118464,0.300163 -0.431753,0.969468 -0.541237,1.156288 L 17.6437,16.1348 17.381091,15.964617 c -0.701078,-0.454333 -1.645497,-0.839515 -2.708105,-1.104503 -1.20043,-0.299357 -2.360044,-0.422183 -3.270142,-0.346372 -1.8114038,0.15089 -3.6281626,0.701878 -4.7839356,1.450875 L 6.3563003,16.1348 Z m 6.4343358,-3.073855 c 1.077605,-0.236543 1.960643,-0.927367 2.43712,-1.906622 C 15.70131,9.9172601 15.615621,8.6193879 14.92803,7.5571803 14.713069,7.2251025 14.214659,6.7353381 13.883293,6.5305655 13.244535,6.1358352 12.532237,5.9531822 11.800948,5.996595 10.906482,6.0496948 10.155528,6.387023 9.5224601,7.0200904 8.872237,7.6703138 8.538021,8.4314602 8.4959005,9.3579884 8.4340666,10.718141 9.1746981,11.994636 10.389837,12.62223 c 0.299044,0.15445 0.672387,0.281195 0.970353,0.32942 0.117298,0.01898 0.232464,0.0391 0.255924,0.0447 0.110924,0.02648 0.915673,-0.01366 1.104387,-0.05508 z"
     id="path47" />
  <path
     style="fill:#ccaaff;stroke-width:0.028436"
     d="M 11.717585,10.95738 C 11.122746,10.843785 10.619188,10.307174 10.530433,9.6923028 10.430106,8.9972619 10.885866,8.2935888 11.572279,8.0837404 12.40848,7.8280992 13.268695,8.3512829 13.45282,9.2274882 13.662015,10.222997 12.731199,11.150948 11.717585,10.95738 Z"
     id="path86" />
  <path
     style="fill:#ccaaff;stroke-width:0.028436"
     d="M 11.520306,20.830407 C 10.64474,20.52398 9.7671486,20.010554 8.932143,19.31623 8.5062465,18.962088 7.521327,17.936746 7.521327,17.847512 c 0,-0.01662 0.073578,-0.07999 0.1635071,-0.140803 1.1198598,-0.757335 3.3003809,-1.292073 4.7843599,-1.173287 1.437605,0.115073 2.974505,0.583934 3.845972,1.173287 0.08993,0.06082 0.163507,0.124435 0.163507,0.141373 0,0.05135 -0.452681,0.55643 -0.841802,0.939245 -0.775406,0.762841 -1.482195,1.273297 -2.35725,1.702447 -0.458936,0.225075 -1.152227,0.483117 -1.290235,0.480225 -0.04108,-8.62e-4 -0.252168,-0.06368 -0.46908,-0.139592 z"
     id="path125" />
</svg>
