<?xml version="1.0" encoding="UTF-8" standalone="no"?>
<svg
   viewBox="0 0 24 24"
   version="1.1"
   id="svg4"
   sodipodi:docname="eye-outline.svg"
   inkscape:version="1.1.2 (0a00cf5339, 2022-02-04)"
   xmlns:inkscape="http://www.inkscape.org/namespaces/inkscape"
   xmlns:sodipodi="http://sodipodi.sourceforge.net/DTD/sodipodi-0.dtd"
   xmlns="http://www.w3.org/2000/svg"
   xmlns:svg="http://www.w3.org/2000/svg">
  <defs
     id="defs8" />
  <sodipodi:namedview
     id="namedview6"
     pagecolor="#ffffff"
     bordercolor="#666666"
     borderopacity="1.0"
     inkscape:pageshadow="2"
     inkscape:pageopacity="0.0"
     inkscape:pagecheckerboard="0"
     showgrid="false"
     inkscape:zoom="35.166667"
     inkscape:cx="8.7298577"
     inkscape:cy="12.014218"
     inkscape:window-width="1850"
     inkscape:window-height="1016"
     inkscape:window-x="70"
     inkscape:window-y="27"
     inkscape:window-maximized="1"
     inkscape:current-layer="svg4" />
  <path
     d="M12,9A3,3 0 0,1 15,12A3,3 0 0,1 12,15A3,3 0 0,1 9,12A3,3 0 0,1 12,9M12,4.5C17,4.5 21.27,7.61 23,12C21.27,16.39 17,19.5 12,19.5C7,19.5 2.73,16.39 1,12C2.73,7.61 7,4.5 12,4.5M3.18,12C4.83,15.36 8.24,17.5 12,17.5C15.76,17.5 19.17,15.36 20.82,12C19.17,8.64 15.76,6.5 12,6.5C8.24,6.5 4.83,8.64 3.18,12Z"
     id="path2" />
  <path
     style="fill:none;stroke-width:0.0028436"
     d="M 11.203791,17.456583 C 9.9288236,17.309051 9.1187977,17.105635 8.1345264,16.685817 6.1177504,15.82561 4.3837473,14.235014 3.3655611,12.311261 L 3.2045757,12.007096 3.2969679,11.818714 C 3.8026714,10.787615 4.7537307,9.5997995 5.7108785,8.803886 7.1682208,7.5920371 8.8256727,6.8665736 10.763033,6.5925675 c 0.528743,-0.074782 1.975691,-0.075018 2.488152,-4.057e-4 1.939774,0.2824215 3.593789,1.0086148 5.037931,2.2118979 0.960747,0.8005108 1.90848,1.9841003 2.413916,3.0146543 l 0.09239,0.188382 -0.160985,0.304165 c -0.562233,1.062278 -1.43592,2.133047 -2.378515,2.915048 -1.40478,1.165442 -3.105867,1.908179 -4.990521,2.178986 -0.297803,0.04279 -1.809939,0.08041 -2.061612,0.05129 z m 1.606636,-2.55359 c 0.631814,-0.186494 1.163782,-0.538369 1.545262,-1.02213 0.872974,-1.107032 0.872974,-2.654694 0,-3.761726 C 13.975663,9.6372196 13.451889,9.2899528 12.810427,9.0946145 12.568929,9.0210736 12.523244,9.0166804 12,9.0166804 c -0.523244,0 -0.568929,0.00439 -0.810427,0.077934 -0.981856,0.2989952 -1.6918571,0.9605036 -2.0218369,1.8837466 -0.5689788,1.591933 0.280177,3.353679 1.8684139,3.876404 0.383485,0.126213 0.526417,0.144717 1.03494,0.133978 0.421536,-0.0089 0.51617,-0.01988 0.739337,-0.08575 z"
     id="path862" />
  <path
     style="fill:none;stroke-width:0.0028436"
     d="M 10.677725,17.375566 C 8.9138155,17.106285 7.4752961,16.513877 6.127962,15.501892 4.962833,14.626762 3.922692,13.39457 3.2901585,12.140118 L 3.2174273,11.995876 3.3708241,11.706932 C 4.0936135,10.345457 5.2655032,9.0508476 6.5480823,8.1969534 7.7563839,7.3925106 8.9751389,6.9132146 10.478673,6.6511824 c 0.373438,-0.065082 0.531196,-0.076183 1.267182,-0.089171 0.940665,-0.0166 1.394699,0.011885 1.974524,0.1238754 1.482924,0.2864207 2.766331,0.8225941 3.915033,1.6355976 1.222369,0.8651415 2.306785,2.0914266 2.993733,3.3853896 l 0.153366,0.288887 -0.08698,0.172735 c -0.04784,0.09501 -0.182091,0.330747 -0.298343,0.523871 -1.439663,2.39165 -3.743579,4.021619 -6.477761,4.582873 -0.619059,0.127076 -0.803706,0.143087 -1.805687,0.156577 -0.933771,0.01257 -1.002966,0.0099 -1.436019,-0.05625 z m 2.175355,-2.474665 c 0.341785,-0.110247 0.569055,-0.218191 0.842595,-0.400198 1.114885,-0.741819 1.600714,-2.192297 1.164183,-3.475753 -0.323287,-0.950503 -1.048441,-1.6324981 -2.081648,-1.9577556 -0.245604,-0.077317 -1.310816,-0.077317 -1.556421,0 -1.194085,0.3759027 -1.9923147,1.2501936 -2.1942696,2.4033546 -0.2545876,1.453696 0.5784339,2.894574 1.9520086,3.376391 0.391052,0.137172 0.511661,0.152865 1.091562,0.142026 0.495812,-0.0093 0.56018,-0.01652 0.78199,-0.08807 z"
     id="path859" />
  <path
     style="fill:none;stroke-width:0.0028436"
     d="M 10.677725,17.375566 C 8.9138155,17.106285 7.4752961,16.513877 6.127962,15.501892 4.962833,14.626762 3.922692,13.39457 3.2901585,12.140118 L 3.2174273,11.995876 3.3708241,11.706932 C 4.0936135,10.345457 5.2655032,9.0508476 6.5480823,8.1969534 7.7563839,7.3925106 8.9751389,6.9132146 10.478673,6.6511824 c 0.373438,-0.065082 0.531196,-0.076183 1.267182,-0.089171 0.940665,-0.0166 1.394699,0.011885 1.974524,0.1238754 1.482924,0.2864207 2.766331,0.8225941 3.915033,1.6355976 1.222369,0.8651415 2.306785,2.0914266 2.993733,3.3853896 l 0.153366,0.288887 -0.08698,0.172735 c -0.04784,0.09501 -0.182091,0.330747 -0.298343,0.523871 -1.439663,2.39165 -3.743579,4.021619 -6.477761,4.582873 -0.619059,0.127076 -0.803706,0.143087 -1.805687,0.156577 -0.933771,0.01257 -1.002966,0.0099 -1.436019,-0.05625 z m 2.175355,-2.474665 c 0.341785,-0.110247 0.569055,-0.218191 0.842595,-0.400198 1.114885,-0.741819 1.600714,-2.192297 1.164183,-3.475753 -0.323287,-0.950503 -1.048441,-1.6324981 -2.081648,-1.9577556 -0.245604,-0.077317 -1.310816,-0.077317 -1.556421,0 -1.194085,0.3759027 -1.9923147,1.2501936 -2.1942696,2.4033546 -0.2545876,1.453696 0.5784339,2.894574 1.9520086,3.376391 0.391052,0.137172 0.511661,0.152865 1.091562,0.142026 0.495812,-0.0093 0.56018,-0.01652 0.78199,-0.08807 z"
     id="path935" />
  <path
     style="fill:none;stroke-width:0.0028436"
     d="M 10.677725,17.375566 C 8.9138155,17.106285 7.4752961,16.513877 6.127962,15.501892 4.962833,14.626762 3.922692,13.39457 3.2901585,12.140118 L 3.2174273,11.995876 3.3708241,11.706932 C 4.0936135,10.345457 5.2655032,9.0508476 6.5480823,8.1969534 7.7563839,7.3925106 8.9751389,6.9132146 10.478673,6.6511824 c 0.373438,-0.065082 0.531196,-0.076183 1.267182,-0.089171 0.940665,-0.0166 1.394699,0.011885 1.974524,0.1238754 1.482924,0.2864207 2.766331,0.8225941 3.915033,1.6355976 1.222369,0.8651415 2.306785,2.0914266 2.993733,3.3853896 l 0.153366,0.288887 -0.08698,0.172735 c -0.04784,0.09501 -0.182091,0.330747 -0.298343,0.523871 -1.439663,2.39165 -3.743579,4.021619 -6.477761,4.582873 -0.619059,0.127076 -0.803706,0.143087 -1.805687,0.156577 -0.933771,0.01257 -1.002966,0.0099 -1.436019,-0.05625 z m 2.175355,-2.474665 c 0.341785,-0.110247 0.569055,-0.218191 0.842595,-0.400198 1.114885,-0.741819 1.600714,-2.192297 1.164183,-3.475753 -0.323287,-0.950503 -1.048441,-1.6324981 -2.081648,-1.9577556 -0.245604,-0.077317 -1.310816,-0.077317 -1.556421,0 -1.194085,0.3759027 -1.9923147,1.2501936 -2.1942696,2.4033546 -0.2545876,1.453696 0.5784339,2.894574 1.9520086,3.376391 0.391052,0.137172 0.511661,0.152865 1.091562,0.142026 0.495812,-0.0093 0.56018,-0.01652 0.78199,-0.08807 z"
     id="path974" />
  <path
     style="fill:none;stroke-width:0.0028436"
     d="M 10.677725,17.375566 C 8.9138155,17.106285 7.4752961,16.513877 6.127962,15.501892 4.962833,14.626762 3.922692,13.39457 3.2901585,12.140118 L 3.2174273,11.995876 3.3708241,11.706932 C 4.0936135,10.345457 5.2655032,9.0508476 6.5480823,8.1969534 7.7563839,7.3925106 8.9751389,6.9132146 10.478673,6.6511824 c 0.373438,-0.065082 0.531196,-0.076183 1.267182,-0.089171 0.940665,-0.0166 1.394699,0.011885 1.974524,0.1238754 1.482924,0.2864207 2.766331,0.8225941 3.915033,1.6355976 1.222369,0.8651415 2.306785,2.0914266 2.993733,3.3853896 l 0.153366,0.288887 -0.08698,0.172735 c -0.04784,0.09501 -0.182091,0.330747 -0.298343,0.523871 -1.439663,2.39165 -3.743579,4.021619 -6.477761,4.582873 -0.619059,0.127076 -0.803706,0.143087 -1.805687,0.156577 -0.933771,0.01257 -1.002966,0.0099 -1.436019,-0.05625 z m 2.175355,-2.474665 c 0.341785,-0.110247 0.569055,-0.218191 0.842595,-0.400198 1.114885,-0.741819 1.600714,-2.192297 1.164183,-3.475753 -0.323287,-0.950503 -1.048441,-1.6324981 -2.081648,-1.9577556 -0.245604,-0.077317 -1.310816,-0.077317 -1.556421,0 -1.194085,0.3759027 -1.9923147,1.2501936 -2.1942696,2.4033546 -0.2545876,1.453696 0.5784339,2.894574 1.9520086,3.376391 0.391052,0.137172 0.511661,0.152865 1.091562,0.142026 0.495812,-0.0093 0.56018,-0.01652 0.78199,-0.08807 z"
     id="path1087" />
  <path
     style="fill:none;stroke-width:0.0028436"
     d="M 10.677725,17.375566 C 8.9138155,17.106285 7.4752961,16.513877 6.127962,15.501892 4.962833,14.626762 3.922692,13.39457 3.2901585,12.140118 L 3.2174273,11.995876 3.3708241,11.706932 C 4.0936135,10.345457 5.2655032,9.0508476 6.5480823,8.1969534 7.7563839,7.3925106 8.9751389,6.9132146 10.478673,6.6511824 c 0.373438,-0.065082 0.531196,-0.076183 1.267182,-0.089171 0.940665,-0.0166 1.394699,0.011885 1.974524,0.1238754 1.482924,0.2864207 2.766331,0.8225941 3.915033,1.6355976 1.222369,0.8651415 2.306785,2.0914266 2.993733,3.3853896 l 0.153366,0.288887 -0.08698,0.172735 c -0.04784,0.09501 -0.182091,0.330747 -0.298343,0.523871 -1.439663,2.39165 -3.743579,4.021619 -6.477761,4.582873 -0.619059,0.127076 -0.803706,0.143087 -1.805687,0.156577 -0.933771,0.01257 -1.002966,0.0099 -1.436019,-0.05625 z m 2.175355,-2.474665 c 0.341785,-0.110247 0.569055,-0.218191 0.842595,-0.400198 1.114885,-0.741819 1.600714,-2.192297 1.164183,-3.475753 -0.323287,-0.950503 -1.048441,-1.6324981 -2.081648,-1.9577556 -0.245604,-0.077317 -1.310816,-0.077317 -1.556421,0 -1.194085,0.3759027 -1.9923147,1.2501936 -2.1942696,2.4033546 -0.2545876,1.453696 0.5784339,2.894574 1.9520086,3.376391 0.391052,0.137172 0.511661,0.152865 1.091562,0.142026 0.495812,-0.0093 0.56018,-0.01652 0.78199,-0.08807 z"
     id="path1126" />
  <path
     style="fill:none;stroke-width:0.0028436"
     d="M 10.677725,17.375566 C 8.9138155,17.106285 7.4752961,16.513877 6.127962,15.501892 4.962833,14.626762 3.922692,13.39457 3.2901585,12.140118 L 3.2174273,11.995876 3.3708241,11.706932 C 4.0936135,10.345457 5.2655032,9.0508476 6.5480823,8.1969534 7.7563839,7.3925106 8.9751389,6.9132146 10.478673,6.6511824 c 0.373438,-0.065082 0.531196,-0.076183 1.267182,-0.089171 0.940665,-0.0166 1.394699,0.011885 1.974524,0.1238754 1.482924,0.2864207 2.766331,0.8225941 3.915033,1.6355976 1.222369,0.8651415 2.306785,2.0914266 2.993733,3.3853896 l 0.153366,0.288887 -0.08698,0.172735 c -0.04784,0.09501 -0.182091,0.330747 -0.298343,0.523871 -1.439663,2.39165 -3.743579,4.021619 -6.477761,4.582873 -0.619059,0.127076 -0.803706,0.143087 -1.805687,0.156577 -0.933771,0.01257 -1.002966,0.0099 -1.436019,-0.05625 z m 2.175355,-2.474665 c 0.341785,-0.110247 0.569055,-0.218191 0.842595,-0.400198 1.114885,-0.741819 1.600714,-2.192297 1.164183,-3.475753 -0.323287,-0.950503 -1.048441,-1.6324981 -2.081648,-1.9577556 -0.245604,-0.077317 -1.310816,-0.077317 -1.556421,0 -1.194085,0.3759027 -1.9923147,1.2501936 -2.1942696,2.4033546 -0.2545876,1.453696 0.5784339,2.894574 1.9520086,3.376391 0.391052,0.137172 0.511661,0.152865 1.091562,0.142026 0.495812,-0.0093 0.56018,-0.01652 0.78199,-0.08807 z"
     id="path1165" />
  <path
     style="fill:none;stroke-width:0.0028436"
     d="M 10.677725,17.375566 C 8.9138155,17.106285 7.4752961,16.513877 6.127962,15.501892 4.962833,14.626762 3.922692,13.39457 3.2901585,12.140118 L 3.2174273,11.995876 3.3708241,11.706932 C 4.0936135,10.345457 5.2655032,9.0508476 6.5480823,8.1969534 7.7563839,7.3925106 8.9751389,6.9132146 10.478673,6.6511824 c 0.373438,-0.065082 0.531196,-0.076183 1.267182,-0.089171 0.940665,-0.0166 1.394699,0.011885 1.974524,0.1238754 1.482924,0.2864207 2.766331,0.8225941 3.915033,1.6355976 1.222369,0.8651415 2.306785,2.0914266 2.993733,3.3853896 l 0.153366,0.288887 -0.08698,0.172735 c -0.04784,0.09501 -0.182091,0.330747 -0.298343,0.523871 -1.439663,2.39165 -3.743579,4.021619 -6.477761,4.582873 -0.619059,0.127076 -0.803706,0.143087 -1.805687,0.156577 -0.933771,0.01257 -1.002966,0.0099 -1.436019,-0.05625 z m 2.175355,-2.474665 c 0.341785,-0.110247 0.569055,-0.218191 0.842595,-0.400198 1.114885,-0.741819 1.600714,-2.192297 1.164183,-3.475753 -0.323287,-0.950503 -1.048441,-1.6324981 -2.081648,-1.9577556 -0.245604,-0.077317 -1.310816,-0.077317 -1.556421,0 -1.194085,0.3759027 -1.9923147,1.2501936 -2.1942696,2.4033546 -0.2545876,1.453696 0.5784339,2.894574 1.9520086,3.376391 0.391052,0.137172 0.511661,0.152865 1.091562,0.142026 0.495812,-0.0093 0.56018,-0.01652 0.78199,-0.08807 z"
     id="path1241" />
</svg>
