<?xml version="1.0" encoding="UTF-8" standalone="no"?>
<svg
   viewBox="0 0 24 24"
   version="1.1"
   id="svg4"
   sodipodi:docname="share-variant-outline.svg"
   inkscape:version="1.1.2 (0a00cf5339, 2022-02-04)"
   xmlns:inkscape="http://www.inkscape.org/namespaces/inkscape"
   xmlns:sodipodi="http://sodipodi.sourceforge.net/DTD/sodipodi-0.dtd"
   xmlns="http://www.w3.org/2000/svg"
   xmlns:svg="http://www.w3.org/2000/svg">
  <defs
     id="defs8" />
  <sodipodi:namedview
     id="namedview6"
     pagecolor="#ffffff"
     bordercolor="#666666"
     borderopacity="1.0"
     inkscape:pageshadow="2"
     inkscape:pageopacity="0.0"
     inkscape:pagecheckerboard="0"
     showgrid="false"
     inkscape:zoom="35.166667"
     inkscape:cx="12"
     inkscape:cy="12.014218"
     inkscape:window-width="1850"
     inkscape:window-height="1016"
     inkscape:window-x="70"
     inkscape:window-y="27"
     inkscape:window-maximized="1"
     inkscape:current-layer="svg4" />
  <path
     d="M18 16.08C17.24 16.08 16.56 16.38 16.04 16.85L8.91 12.7C8.96 12.47 9 12.24 9 12S8.96 11.53 8.91 11.3L15.96 7.19C16.5 7.69 17.21 8 18 8C19.66 8 21 6.66 21 5S19.66 2 18 2 15 3.34 15 5C15 5.24 15.04 5.47 15.09 5.7L8.04 9.81C7.5 9.31 6.79 9 6 9C4.34 9 3 10.34 3 12S4.34 15 6 15C6.79 15 7.5 14.69 8.04 14.19L15.16 18.34C15.11 18.55 15.08 18.77 15.08 19C15.08 20.61 16.39 21.91 18 21.91S20.92 20.61 20.92 19C20.92 17.39 19.61 16.08 18 16.08M18 4C18.55 4 19 4.45 19 5S18.55 6 18 6 17 5.55 17 5 17.45 4 18 4M6 13C5.45 13 5 12.55 5 12S5.45 11 6 11 7 11.45 7 12 6.55 13 6 13M18 20C17.45 20 17 19.55 17 19S17.45 18 18 18 19 18.45 19 19 18.55 20 18 20Z"
     id="path2" />
  <path
     style="fill:none;stroke-width:0.0028436"
     d="M 5.6536945,12.914724 C 5.3269431,12.777408 5.1276262,12.545305 5.0434157,12.204061 c -0.038696,-0.156807 -0.0411,-0.21687 -0.014067,-0.351476 0.096627,-0.481142 0.457553,-0.803227 0.9279975,-0.828131 0.4738852,-0.02509 0.8800504,0.288502 0.9992383,0.771485 0.053629,0.21732 0.028561,0.416533 -0.080858,0.642561 -0.2108746,0.435609 -0.7856673,0.659605 -1.222032,0.476224 z"
     id="path862" />
  <path
     style="fill:none;stroke-width:0.0028436"
     d="M 17.73684,5.9473784 C 17.66248,5.9263809 17.538002,5.8657739 17.46022,5.8126962 16.946694,5.4622678 16.870615,4.7621639 17.29875,4.3267767 17.521769,4.0999794 17.670752,4.0387972 18,4.0387972 c 0.228558,0 0.292029,0.010679 0.412322,0.069373 0.391866,0.1911999 0.643907,0.6721636 0.556081,1.0611584 -0.103888,0.4601374 -0.456073,0.7744376 -0.900272,0.803429 -0.117599,0.00768 -0.250212,-0.00248 -0.331291,-0.025379 z"
     id="path901" />
  <path
     style="fill:none;stroke-width:0.0028436"
     d="m 17.711209,19.938354 c -0.428564,-0.160019 -0.68853,-0.514909 -0.690837,-0.943093 -0.0017,-0.319079 0.1655,-0.623044 0.44568,-0.810142 0.582297,-0.388843 1.342567,-0.06216 1.502351,0.645553 0.08743,0.387236 -0.152316,0.850838 -0.541863,1.047819 -0.187861,0.09499 -0.541893,0.124622 -0.715331,0.05986 z"
     id="path940" />
</svg>
