<?xml version="1.0" encoding="UTF-8" standalone="no"?>
<svg
   viewBox="0 0 24 24"
   version="1.1"
   id="svg4"
   sodipodi:docname="star-outline.svg"
   inkscape:version="1.1.2 (0a00cf5339, 2022-02-04)"
   xmlns:inkscape="http://www.inkscape.org/namespaces/inkscape"
   xmlns:sodipodi="http://sodipodi.sourceforge.net/DTD/sodipodi-0.dtd"
   xmlns="http://www.w3.org/2000/svg"
   xmlns:svg="http://www.w3.org/2000/svg">
  <defs
     id="defs8" />
  <sodipodi:namedview
     id="namedview6"
     pagecolor="#ffffff"
     bordercolor="#666666"
     borderopacity="1.0"
     inkscape:pageshadow="2"
     inkscape:pageopacity="0.0"
     inkscape:pagecheckerboard="0"
     showgrid="false"
     inkscape:zoom="35.166667"
     inkscape:cx="12"
     inkscape:cy="12.014218"
     inkscape:window-width="1850"
     inkscape:window-height="1016"
     inkscape:window-x="70"
     inkscape:window-y="27"
     inkscape:window-maximized="1"
     inkscape:current-layer="svg4" />
  <path
     d="M12,15.39L8.24,17.66L9.23,13.38L5.91,10.5L10.29,10.13L12,6.09L13.71,10.13L18.09,10.5L14.77,13.38L15.76,17.66M22,9.24L14.81,8.63L12,2L9.19,8.63L2,9.24L7.45,13.97L5.82,21L12,17.27L18.18,21L16.54,13.97L22,9.24Z"
     id="path2" />
  <path
     style="fill:none;stroke-width:0.0028436"
     d="m 8.2748815,17.600351 c 0,-0.01052 0.218831,-0.966136 0.4862912,-2.123602 C 9.2325176,13.436947 9.2458456,13.370753 9.194822,13.323031 9.165869,13.295951 8.4284475,12.6559 7.5561075,11.900695 6.6837676,11.14549 5.9741759,10.523454 5.9792371,10.518393 c 0.00506,-0.0051 0.9299313,-0.0864 2.0552669,-0.180766 1.1253357,-0.09436 2.09725,-0.178407 2.159809,-0.186771 l 0.113744,-0.01521 0.838862,-1.9890033 C 11.608294,7.0526931 11.99218,6.1575719 12,6.1574867 c 0.0078,-8.53e-5 0.390513,0.8921705 0.850429,1.9827905 0.459916,1.0906201 0.839522,1.9871958 0.843568,1.9923908 0.004,0.0052 0.96989,0.09108 2.146319,0.190859 1.176428,0.09978 2.151719,0.185666 2.167313,0.190864 0.0208,0.0069 -2.808278,2.489419 -3.201572,2.809342 -0.05274,0.0429 -0.04079,0.102275 0.434094,2.15709 0.268578,1.162138 0.484369,2.116758 0.479536,2.12138 -0.0048,0.0046 -0.843529,-0.495813 -1.86377,-1.112076 l -1.854983,-1.120477 -1.8417,1.111945 c -1.0129338,0.611569 -1.8512956,1.117778 -1.8630255,1.124909 -0.01173,0.0071 -0.021327,0.0044 -0.021327,-0.0062 z"
     id="path862" />
</svg>
