<?xml version="1.0" encoding="UTF-8" standalone="no"?>
<svg
   viewBox="0 0 24 24"
   version="1.1"
   id="svg4"
   sodipodi:docname="account-circle-outline.svg"
   inkscape:version="1.1.2 (0a00cf5339, 2022-02-04)"
   xmlns:inkscape="http://www.inkscape.org/namespaces/inkscape"
   xmlns:sodipodi="http://sodipodi.sourceforge.net/DTD/sodipodi-0.dtd"
   xmlns="http://www.w3.org/2000/svg"
   xmlns:svg="http://www.w3.org/2000/svg">
  <defs
     id="defs8" />
  <sodipodi:namedview
     id="namedview6"
     pagecolor="#ffffff"
     bordercolor="#666666"
     borderopacity="1.0"
     inkscape:pageshadow="2"
     inkscape:pageopacity="0.0"
     inkscape:pagecheckerboard="0"
     showgrid="false"
     inkscape:zoom="256"
     inkscape:cx="11.207031"
     inkscape:cy="8.4902344"
     inkscape:window-width="1850"
     inkscape:window-height="1016"
     inkscape:window-x="70"
     inkscape:window-y="27"
     inkscape:window-maximized="1"
     inkscape:current-layer="svg4" />
  <path
     d="M12,2A10,10 0 0,0 2,12A10,10 0 0,0 12,22A10,10 0 0,0 22,12A10,10 0 0,0 12,2M7.07,18.28C7.5,17.38 10.12,16.5 12,16.5C13.88,16.5 16.5,17.38 16.93,18.28C15.57,19.36 13.86,20 12,20C10.14,20 8.43,19.36 7.07,18.28M18.36,16.83C16.93,15.09 13.46,14.5 12,14.5C10.54,14.5 7.07,15.09 5.64,16.83C4.62,15.5 4,13.82 4,12C4,7.59 7.59,4 12,4C16.41,4 20,7.59 20,12C20,13.82 19.38,15.5 18.36,16.83M12,6C10.06,6 8.5,7.56 8.5,9.5C8.5,11.44 10.06,13 12,13C13.94,13 15.5,11.44 15.5,9.5C15.5,7.56 13.94,6 12,6M12,11A1.5,1.5 0 0,1 10.5,9.5A1.5,1.5 0 0,1 12,8A1.5,1.5 0 0,1 13.5,9.5A1.5,1.5 0 0,1 12,11Z"
     id="path2" />
  <path
     style="fill:#800000;stroke-width:0.0028436"
     d="m 11.634918,10.932727 c -0.268146,-0.07024 -0.485904,-0.195941 -0.684819,-0.39532 -0.71519,-0.7168548 -0.507375,-1.9147939 0.410091,-2.3639488 0.434483,-0.2127059 0.846361,-0.2121185 1.283333,0.00183 0.91373,0.4473776 1.119886,1.6386691 0.40861,2.3611988 -0.197586,0.200711 -0.416995,0.32563 -0.698312,0.397579 -0.272341,0.06965 -0.449137,0.06932 -0.718903,-0.0013 z"
     id="path862" />
  <path
     style="fill:#800000;stroke-width:0.0028436"
     d="M 5.4685029,16.558216 C 4.1148132,14.640233 3.6830452,12.24786 4.2801698,9.97381 5.0451204,7.0606214 7.4393869,4.7892116 10.384818,4.1824088 c 1.009059,-0.2078814 2.172336,-0.2135526 3.161002,-0.015411 2.480903,0.4972064 4.581743,2.141219 5.675594,4.4414385 0.859881,1.8082117 0.996309,3.8881497 0.380639,5.8031137 -0.250158,0.778086 -0.60063,1.480849 -1.070556,2.146666 l -0.166524,0.23594 -0.289481,-0.278594 C 17.128407,15.604094 15.517482,14.939954 13.464455,14.614558 12.276987,14.426349 11.287608,14.455605 9.9526066,14.718404 8.1859578,15.066173 6.7776642,15.69449 5.9245084,16.515562 L 5.6350271,16.794156 Z M 12.56872,12.965471 c 1.118341,-0.181235 2.066646,-0.880959 2.580523,-1.904085 0.409238,-0.814794 0.471142,-1.8792436 0.159955,-2.7504951 C 14.951552,7.3095663 14.135102,6.5073939 13.132824,6.1725785 12.709238,6.031078 12.53051,6.0045711 12,6.0045711 c -0.53051,0 -0.709238,0.026507 -1.132824,0.1680074 C 9.8648983,6.5073939 9.0484476,7.3095663 8.6908024,8.3108909 8.4266141,9.0505567 8.4292061,9.9686207 8.69755,10.701086 c 0.5830726,1.59154 2.197152,2.535672 3.87117,2.264385 z"
     id="path975" />
  <path
     style="fill:#ffffff;stroke-width:0.0028436"
     d="M 11.317536,19.958367 C 10.123969,19.812316 9.2883318,19.569476 8.389678,19.107516 7.8620543,18.836288 7.1090047,18.333134 7.1090047,18.251828 c 0,-0.02006 0.077023,-0.118814 0.1711613,-0.219449 0.8257845,-0.882766 3.469448,-1.644635 5.203246,-1.499506 1.339277,0.112105 2.780874,0.530561 3.69178,1.071622 0.283817,0.168582 0.715803,0.558861 0.715803,0.646694 0,0.04988 -0.417644,0.356601 -0.810426,0.595175 -0.874863,0.531387 -1.901985,0.897744 -2.977151,1.061899 -0.281596,0.04299 -1.55258,0.07865 -1.785882,0.0501 z"
     id="path1014" />
  <path
     style="fill:#ffffff;stroke-width:0.0028436"
     d="M 5.4513165,16.500434 C 4.7414978,15.475135 4.303853,14.364866 4.1088814,13.094787 4.044753,12.677043 4.0219442,11.766467 4.0642918,11.314676 4.3144918,8.64539 5.8293065,6.3262035 8.174394,5.0220949 9.9110889,4.0563148 12.010756,3.7861478 13.947867,4.2792142 c 2.893524,0.7365086 5.14805,3.0516623 5.829428,5.9861888 0.154584,0.665754 0.225496,1.744387 0.158946,2.417698 -0.139615,1.412542 -0.601048,2.681999 -1.387656,3.817611 l -0.182689,0.263745 -0.232711,-0.217234 C 17.284624,15.7551 16.2016,15.223917 14.658768,14.843149 12.967921,14.425852 11.654115,14.382216 10.02676,14.689303 c -0.5098071,0.0962 -1.1823926,0.274061 -1.670535,0.441758 -1.0481494,0.36008 -1.8089784,0.789477 -2.4540974,1.385044 L 5.6337157,16.7639 Z m 6.9737755,-3.50645 c 0.488889,-0.04039 1.065435,-0.252122 1.531605,-0.562464 1.920026,-1.278213 2.10476,-4.0644327 0.370264,-5.5844525 C 13.954684,6.520824 13.541697,6.2899553 13.049012,6.132666 12.423408,5.9329423 11.57861,5.9327897 10.950988,6.1322869 9.7211505,6.5232055 8.8185154,7.5112223 8.5545131,8.755448 c -0.079833,0.3762475 -0.086639,1.0499027 -0.014309,1.416395 0.3034493,1.537578 1.5769189,2.695201 3.1185639,2.834868 0.264631,0.02398 0.336559,0.02278 0.766324,-0.01273 z"
     id="path1127" />
  <path
     style="fill:#ffffff;stroke-width:0.0028436"
     d="m 11.616114,10.909007 c -0.631827,-0.181557 -1.068841,-0.747252 -1.070621,-1.3858733 -0.0019,-0.6803806 0.432521,-1.2450595 1.111327,-1.4445645 0.439706,-0.1292323 0.978817,0.02431 1.355552,0.3860689 0.318093,0.3054484 0.450685,0.6476451 0.433267,1.1181852 -0.01022,0.2760691 -0.01713,0.3039223 -0.13392,0.5396107 -0.322044,0.649912 -1.029348,0.978023 -1.695605,0.786573 z"
     id="path1166" />
  <path
     style="fill:#ffeeaa;stroke-width:0.0028436"
     d="M 5.3919414,16.374051 C 4.8520641,15.553415 4.528813,14.826693 4.2937854,13.905213 4.1025687,13.155505 4.0807501,12.960187 4.0809577,12 c 2.02e-4,-0.934603 0.02826,-1.188176 0.2119899,-1.915875 0.7430488,-2.9429885 3.098125,-5.219903 6.0577634,-5.8567152 0.596713,-0.128392 0.920771,-0.1592203 1.663507,-0.1582522 0.785519,0.00102 1.187581,0.046307 1.848341,0.2081751 3.102882,0.7601197 5.507523,3.3692012 5.990601,6.4999183 0.07299,0.473047 0.103058,1.602745 0.05415,2.034817 -0.143137,1.264637 -0.576739,2.461306 -1.280248,3.533277 l -0.257629,0.392561 -0.25517,-0.228787 c -0.483288,-0.43332 -0.9609,-0.75031 -1.547167,-1.026851 -0.879863,-0.41503 -2.085635,-0.752286 -3.315915,-0.927466 -0.511557,-0.07284 -1.931715,-0.07355 -2.473934,-0.0012 -0.8653981,0.115417 -1.9613081,0.38403 -2.6769519,0.656133 -0.973593,0.370181 -1.5936431,0.735567 -2.2346436,1.316842 L 5.631785,16.738622 5.3919414,16.37405 Z m 7.2931946,-3.404126 c 1.022843,-0.195702 1.93488,-0.87212 2.43885,-1.808788 0.151125,-0.280877 0.303169,-0.741996 0.361005,-1.094855 0.06714,-0.409608 0.0431,-1.0355302 -0.05474,-1.4254762 C 15.098772,7.3197289 14.055739,6.3155054 12.727968,6.0390705 12.322532,5.9546605 11.675126,5.9551595 11.266513,6.0402005 10.05045,6.2932772 9.0395266,7.1901968 8.651636,8.3601931 8.60497,8.5009514 8.5493863,8.7056907 8.5281164,8.8151694 c -0.052053,0.2679207 -0.052276,1.1039656 -3.64e-4,1.3649296 0.2895137,1.455412 1.4536206,2.578564 2.9177506,2.815098 0.304545,0.0492 0.915518,0.03675 1.239639,-0.02527 z"
     id="path863" />
  <path
     style="fill:#ffeeaa;stroke-width:0.0028436"
     d="m 11.800948,10.929947 c -0.264147,-0.03241 -0.604385,-0.207128 -0.816571,-0.419314 -0.75663,-0.7566297 -0.445514,-2.0219669 0.585294,-2.3804465 0.229938,-0.079965 0.535998,-0.095913 0.747532,-0.038953 0.233148,0.06278 0.514596,0.2281749 0.693292,0.4074179 0.313396,0.3143544 0.411306,0.5657842 0.411306,1.05622 0,0.275307 -0.0045,0.2963151 -0.110585,0.5156746 -0.155389,0.321325 -0.395906,0.572501 -0.68838,0.718889 -0.123307,0.06172 -0.285097,0.119912 -0.359534,0.129322 -0.07444,0.0094 -0.167331,0.02088 -0.20643,0.02549 -0.0391,0.0046 -0.154265,-0.0018 -0.255924,-0.0143 z"
     id="path996" />
  <path
     style="fill:#ffffff;stroke-width:0.0028436"
     d="M 5.4662412,16.458289 C 4.8328818,15.510073 4.4750135,14.675272 4.2243068,13.561224 4.1113831,13.059433 4.0860888,12.692773 4.1022679,11.79218 c 0.010375,-0.577482 0.0283,-0.890656 0.061346,-1.071801 C 4.6196232,8.2207811 6.1620804,6.1055239 8.3601895,4.9653825 9.4741751,4.3875671 10.501021,4.120568 11.729858,4.0892055 c 1.242386,-0.031708 2.122553,0.1191459 3.18715,0.5462538 2.725623,1.0934984 4.712314,3.7028347 4.961036,6.5158657 0.0514,0.581288 0.02218,1.765959 -0.05322,2.158054 -0.222115,1.155051 -0.605516,2.10291 -1.245249,3.078554 l -0.210863,0.321583 -0.09407,-0.07988 c -0.673994,-0.572295 -0.938975,-0.76136 -1.440521,-1.027817 -0.757943,-0.402674 -1.9599,-0.781028 -3.127962,-0.984625 -0.54748,-0.09543 -0.973879,-0.128052 -1.680705,-0.128595 -0.946799,-7.28e-4 -1.465786,0.05745 -2.4142753,0.270653 -0.8715842,0.195914 -1.5756916,0.434338 -2.2693809,0.768456 -0.6249596,0.301014 -0.8704695,0.468359 -1.6155532,1.101194 l -0.09318,0.07914 z M 12.49763,13.006392 c 0.753269,-0.09231 1.475786,-0.462864 2.043728,-1.048155 0.453953,-0.467822 0.738653,-0.980933 0.90228,-1.626174 0.084,-0.331244 0.106042,-1.0447433 0.04431,-1.4344572 C 15.263677,7.4816686 14.144848,6.3190694 12.729013,6.0307328 12.414442,5.9666699 11.964069,5.9476352 11.60969,5.9834254 10.328488,6.1128189 9.1990964,6.9601515 8.7210446,8.1506473 8.5139334,8.6664178 8.490243,8.8045987 8.4901117,9.4976302 c -1.422e-4,0.6927408 0.025522,0.8464238 0.2230646,1.3363218 0.4457466,1.105432 1.4787167,1.9468 2.6497737,2.158276 0.275549,0.04976 0.791636,0.0562 1.13468,0.01416 z"
     id="path1035" />
  <path
     style="fill:#aaeeff;stroke-width:0.0028436"
     d="m 11.303317,19.956609 c -0.93233,-0.08306 -1.9717882,-0.377011 -2.80454,-0.793098 -0.5564614,-0.278038 -1.3897723,-0.822378 -1.3897723,-0.907835 0,-0.02218 0.077023,-0.122663 0.1711613,-0.223297 0.5983909,-0.639682 2.1354138,-1.227554 3.812991,-1.458373 0.474315,-0.06526 1.339371,-0.06526 1.813685,0 1.345304,0.185101 2.664905,0.618832 3.418972,1.123758 0.224612,0.150401 0.565181,0.486909 0.565181,0.558441 0,0.04676 -0.496749,0.406719 -0.848853,0.615102 -1.263387,0.7477 -2.620212,1.113168 -4.084622,1.100216 -0.297252,-0.0026 -0.591643,-0.0093 -0.654203,-0.01491 z"
     id="path1111" />
  <path
     style="fill:#ffeeaa;stroke-width:0.0028436"
     d="M 5.4209606,16.359425 C 4.8673927,15.510324 4.5233865,14.725413 4.2942531,13.788641 4.1448035,13.177643 4.1235743,12.961966 4.1233903,12.052776 c -1.97e-4,-0.974071 0.024716,-1.261979 0.1551744,-1.793283 0.5433886,-2.213 1.8893761,-4.0260555 3.8046429,-5.1248831 0.956731,-0.5488961 1.9016297,-0.8626643 2.9703794,-0.9863601 0.508498,-0.058853 1.747224,-0.041413 2.197598,0.03094 3.363949,0.540422 6.144965,3.3740607 6.581616,6.7061532 0.05263,0.401605 0.06022,1.668482 0.01282,2.139433 -0.03677,0.365375 -0.201863,1.055836 -0.366893,1.534466 -0.238359,0.691302 -1.048009,2.173568 -1.145315,2.096782 -0.01916,-0.01512 -0.192337,-0.155979 -0.384837,-0.31302 -0.192499,-0.15704 -0.435627,-0.342979 -0.540284,-0.413196 -0.932879,-0.625891 -2.356067,-1.113559 -4.01493,-1.375752 -0.476464,-0.07531 -2.272269,-0.07535 -2.772512,-5.7e-5 -0.6992451,0.105234 -1.6026336,0.320887 -2.2037915,0.526081 -1.0374895,0.354128 -1.730187,0.728383 -2.4274284,1.311508 -0.1699197,0.142109 -0.320222,0.26535 -0.334005,0.273868 -0.013783,0.0085 -0.1193834,-0.129191 -0.2346675,-0.306022 z m 7.4653774,-3.41505 c 1.16642,-0.308146 2.10161,-1.185312 2.481065,-2.327128 0.122544,-0.368745 0.158663,-0.6297156 0.158663,-1.1463856 0,-0.646287 -0.09928,-1.0751078 -0.372364,-1.6083022 C 14.675962,6.9297639 13.791853,6.2510754 12.759961,6.0249984 12.431849,5.9531125 11.779446,5.9404212 11.427809,5.9990839 10.105227,6.2197265 9.0708915,7.0972012 8.6199321,8.3811355 8.5121607,8.6879738 8.4739336,8.9803068 8.4739336,9.4976302 c 0,0.7028168 0.078411,1.0565718 0.3561145,1.6066348 0.4810899,0.952922 1.4246149,1.673309 2.4768369,1.891079 0.141386,0.02926 0.348937,0.03786 0.749987,0.03106 0.485158,-0.0082 0.588888,-0.01848 0.829466,-0.08203 z"
     id="path1200" />
  <path
     style="fill:#ffccaa;stroke-width:0.0028436"
     d="m 11.700243,10.893984 c -0.600665,-0.145928 -1.063912,-0.675656 -1.114071,-1.2739521 -0.06153,-0.7339825 0.491316,-1.4176373 1.238663,-1.5317309 0.415957,-0.063502 0.825656,0.08573 1.173539,0.4274577 0.258342,0.2537706 0.361581,0.4693144 0.394896,0.8244618 0.04717,0.5028463 -0.05718,0.7953515 -0.412227,1.1555655 -0.360323,0.365562 -0.823019,0.509414 -1.2808,0.398198 z"
     id="path1276" />
  <path
     style="fill:#afe9af;stroke-width:0.0028436"
     d="M 10.947867,19.904115 C 10.209064,19.79227 9.4136858,19.561131 8.7507282,19.26562 8.1886578,19.01508 7.1651297,18.375348 7.142545,18.260464 7.1306015,18.19971 7.3903868,17.926217 7.607327,17.771159 8.5713819,17.082098 10.51402,16.535739 12,16.535739 c 1.332549,0 3.132673,0.463116 4.147441,1.067007 0.253485,0.150849 0.671078,0.516563 0.702351,0.615095 0.02354,0.07417 -0.01901,0.110753 -0.526486,0.452603 -0.668252,0.450156 -1.528275,0.833572 -2.332602,1.039922 -0.697953,0.179059 -0.997907,0.213936 -1.933832,0.224857 -0.627803,0.0073 -0.906831,-5.01e-4 -1.109005,-0.03111 z"
     id="path1352" />
  <path
     style="fill:#ccaaff;stroke-width:0.0028436"
     d="m 11.810806,10.902507 c -0.636527,-0.106295 -1.134354,-0.62188 -1.202336,-1.2452267 -0.07433,-0.6815891 0.391816,-1.3481682 1.06551,-1.5236432 0.469029,-0.1221666 0.899087,0.00336 1.298953,0.3791341 0.316324,0.2972681 0.446048,0.6586031 0.412446,1.1488384 -0.01871,0.2729743 -0.123175,0.5078164 -0.326729,0.7345014 -0.354215,0.394464 -0.810145,0.579489 -1.247844,0.506396 z"
     id="path1444" />
  <path
     style="fill:#ccaaff;stroke-width:0.0028436"
     d="M 10.773989,19.863359 C 10.112405,19.74305 9.3196529,19.503838 8.7855921,19.263363 8.1615837,18.982387 7.1658767,18.36012 7.1658767,18.251121 c 0,-0.07233 0.3167702,-0.378151 0.5545024,-0.535339 0.800695,-0.529418 2.2151627,-0.982131 3.5101169,-1.123445 0.421948,-0.04605 1.203482,-0.03962 1.636868,0.01347 1.291849,0.158233 2.792825,0.646433 3.43309,1.116632 0.248832,0.182737 0.533669,0.461551 0.533669,0.522384 0,0.03154 -0.09229,0.116564 -0.242109,0.223038 -0.982909,0.698551 -2.080085,1.162031 -3.241303,1.369221 -0.293956,0.05245 -0.475183,0.06229 -1.308057,0.07103 -0.860227,0.009 -1.000104,0.0041 -1.268665,-0.04475 z"
     id="path1520" />
  <path
     style="fill:#ffffff;stroke-width:0.0028436"
     d="M 5.451368,16.372645 C 4.9659862,15.633356 4.6142663,14.881341 4.3970895,14.118483 4.22009,13.496752 4.1744867,13.217144 4.1529457,12.621557 4.1235932,11.809993 4.1592096,10.879515 4.2333374,10.521327 4.4804121,9.3274532 5.0174381,8.1540864 5.7690585,7.1658767 6.0266596,6.82719 6.7418479,6.1000202 7.0805687,5.8323951 7.9589982,5.1383429 8.9892136,4.6194059 10.0181,4.3527103 c 0.706465,-0.1831212 0.88255,-0.2006265 2.010336,-0.1998544 0.871512,5.967e-4 1.081225,0.0088 1.308057,0.051186 1.090858,0.2038251 2.050187,0.5941639 2.978549,1.211934 1.820484,1.2114248 3.070995,3.0721388 3.450214,5.1337871 0.133496,0.725762 0.125451,2.292577 -0.01519,2.957346 -0.106066,0.501364 -0.260081,1.008676 -0.418569,1.378731 -0.237703,0.555018 -0.723979,1.454806 -0.911746,1.68706 l -0.06468,0.08001 -0.387968,-0.310651 c -0.501045,-0.401194 -0.731589,-0.553803 -1.17955,-0.78081 -0.803602,-0.407229 -1.715175,-0.700264 -2.893518,-0.930151 -0.644353,-0.12571 -1.073716,-0.152289 -2.178397,-0.134853 -0.8599,0.01357 -0.992734,0.02221 -1.364929,0.08872 -0.5759553,0.10292 -1.4768606,0.330852 -1.9636662,0.496812 C 7.37675,15.426403 6.7393104,15.77089 5.9857819,16.379674 5.8293838,16.506029 5.6862061,16.618657 5.6676092,16.629958 5.645621,16.643319 5.5700017,16.553337 5.451368,16.372645 Z m 7.161547,-3.36518 c 0.617311,-0.08586 1.332882,-0.448221 1.837876,-0.930689 0.51462,-0.491666 0.885849,-1.152386 1.024121,-1.822752 0.0488,-0.236596 0.05451,-0.3506809 0.04279,-0.8559198 C 15.50236,8.736081 15.464763,8.5344818 15.274218,8.0925102 15.035382,7.5385233 14.602359,6.9908294 14.119633,6.6321736 13.820101,6.409627 13.28059,6.1487947 12.92417,6.0542147 12.549819,5.954876 11.789906,5.9259487 11.388625,5.9957615 10.112316,6.2178074 9.0569985,7.1145238 8.622644,8.3460511 8.5046388,8.6806319 8.4739336,8.9172935 8.4739336,9.4922433 c 0,0.5644837 0.04214,0.8665097 0.1696473,1.2158867 0.4117541,1.128234 1.4017291,1.997025 2.6028641,2.284248 0.208823,0.04993 1.049212,0.05921 1.36647,0.01509 z"
     id="path1616" />
  <path
     style="fill:#ffeeaa;stroke-width:0.0028436"
     d="m 11.690398,10.860269 c -0.538807,-0.144904 -0.959363,-0.601355 -1.056893,-1.1470993 -0.107682,-0.6025503 0.295329,-1.2799321 0.903097,-1.5179286 0.194844,-0.076299 0.458841,-0.1075561 0.649026,-0.076844 0.415885,0.067159 0.888641,0.4258328 1.072222,0.8134817 0.09009,0.1902422 0.09286,0.2071368 0.09286,0.5671339 v 0.3710506 l -0.107073,0.2167397 c -0.08089,0.163738 -0.1548,0.260927 -0.302243,0.397436 -0.398168,0.368643 -0.813855,0.493592 -1.250997,0.37603 z"
     id="path873" />
  <path
     style="fill:#aaeeff;stroke-width:0.0028436"
     d="M 10.578199,19.808714 C 9.8604994,19.6551 9.2040027,19.440701 8.6587677,19.181868 c -0.5802983,-0.275479 -1.464455,-0.83584 -1.464455,-0.928144 0,-0.102688 0.4060925,-0.45762 0.7535545,-0.658619 0.5817632,-0.336537 1.5560275,-0.677968 2.4454978,-0.857025 1.239383,-0.249498 2.335575,-0.216533 3.668565,0.110324 0.940051,0.230506 1.728533,0.544904 2.227456,0.888173 0.164966,0.113499 0.516301,0.446105 0.516301,0.488777 0,0.104096 -0.643786,0.540441 -1.258743,0.85315 -0.660098,0.335664 -1.275832,0.550806 -2.052146,0.717036 -0.328389,0.07032 -0.390202,0.07395 -1.437926,0.08441 l -1.094787,0.01093 z"
     id="path949" />
  <path
     style="fill:#aaeeff;stroke-width:0.0028436"
     d="M 11.630013,10.824861 C 11.102542,10.65162 10.683002,10.140402 10.64389,9.623249 10.61291,9.2136448 10.74946,8.8581286 11.0575,8.546379 c 0.301649,-0.305281 0.679713,-0.4535691 1.068175,-0.4189705 0.391432,0.034863 0.925418,0.4197993 1.113367,0.8025957 0.0771,0.1570304 0.08392,0.1972243 0.09253,0.5454743 0.0093,0.3750845 0.0091,0.3763975 -0.084,0.5687205 -0.131505,0.271723 -0.428195,0.562401 -0.722685,0.70804 -0.203365,0.100574 -0.245826,0.110929 -0.480617,0.117207 -0.187118,0.005 -0.300398,-0.0072 -0.41426,-0.04458 z"
     id="path1046" />
  <path
     style="fill:#ffccaa;stroke-width:0.0028436"
     d="M 11.570392,10.781393 C 11.482686,10.745314 11.365485,10.68771 11.309945,10.653385 11.142826,10.5501 10.873093,10.2384 10.772094,10.031852 10.68181,9.8472159 10.677725,9.824644 10.677725,9.5103735 c 0,-0.3241722 0.0014,-0.3314197 0.110221,-0.5515058 0.147246,-0.2979323 0.388208,-0.5395867 0.683625,-0.6855899 0.187832,-0.092831 0.253051,-0.1100816 0.456584,-0.1207644 0.176991,-0.00929 0.278712,5.152e-4 0.399498,0.038507 0.349291,0.1098653 0.74918,0.448273 0.8957,0.7579888 0.08076,0.1707149 0.08466,0.1964411 0.08468,0.5588586 2.2e-5,0.3686958 -0.0025,0.38469 -0.08639,0.5420402 -0.169201,0.317454 -0.511973,0.622082 -0.845438,0.751358 -0.18978,0.07357 -0.603448,0.06337 -0.80581,-0.01987 z"
     id="path876" />
  <path
     style="fill:#ccaaff;stroke-width:0.0028436"
     d="M 10.847438,19.854121 C 10.052342,19.68246 9.4238205,19.494687 8.9004738,19.272458 8.2499857,18.99624 7.2227487,18.363551 7.2227487,18.239123 c 0,-0.0603 0.313745,-0.355425 0.5442567,-0.511963 0.259728,-0.176378 0.8647447,-0.456354 1.3325206,-0.616635 1.624628,-0.556668 3.006717,-0.65738 4.578199,-0.333611 0.936848,0.193017 1.858526,0.519489 2.426257,0.859417 0.281737,0.168689 0.691316,0.545767 0.665599,0.612782 -0.04587,0.119546 -0.700723,0.549063 -1.271951,0.834276 -0.625308,0.312215 -1.200822,0.516416 -1.919431,0.681044 -0.319014,0.07308 -0.392149,0.07884 -1.123223,0.08838 -0.430095,0.0056 -0.94235,0.01369 -1.138344,0.01794 -0.195995,0.0042 -0.407132,-0.0032 -0.469194,-0.01664 z"
     id="path989" />
  <path
     style="fill:#ccaaff;stroke-width:0.0028436"
     d="m 11.792619,10.818269 c -0.395047,-0.0601 -0.786754,-0.373772 -1.000638,-0.801302 -0.09582,-0.1915355 -0.100038,-0.2128477 -0.100038,-0.5056466 0,-0.3013324 0.0017,-0.3090175 0.117279,-0.5399982 0.156127,-0.311933 0.367237,-0.5226235 0.682504,-0.6811494 l 0.238132,-0.1197398 0.298578,0.010488 c 0.283473,0.00996 0.309279,0.016157 0.510096,0.1225423 0.268152,0.1420571 0.563548,0.4314678 0.669944,0.6563709 0.07151,0.1511608 0.07715,0.1900458 0.07764,0.5352335 5.99e-4,0.4237146 -0.0148,0.4775573 -0.21303,0.7450703 -0.14738,0.198885 -0.407045,0.409806 -0.624933,0.507618 -0.175548,0.07881 -0.424787,0.105616 -0.655533,0.07051 z"
     id="path1104" />
  <path
     style="fill:#ffffff;stroke-width:0.0028436"
     d="M 5.5952593,16.540767 C 5.3917171,16.320548 4.922893,15.473851 4.6912856,14.90819 4.2529619,13.837661 4.1256504,13.062657 4.1621676,11.687204 4.1831,10.898767 4.2129752,10.635727 4.3366729,10.150752 4.6551199,8.9022346 5.307692,7.6749215 6.1372037,6.7644367 6.8715952,5.9583574 7.5417213,5.4394009 8.4371914,4.9832889 9.1403817,4.6251156 9.8920759,4.3628568 10.578199,4.2363121 c 0.349924,-0.064538 2.058813,-0.093933 2.538843,-0.043671 0.988196,0.1034701 2.284836,0.6134594 3.262105,1.2830377 1.974413,1.3527754 3.283698,3.5179633 3.439221,5.6875032 0.05155,0.71916 0.02534,1.728307 -0.0572,2.201747 -0.05116,0.293487 -0.18927,0.810715 -0.311301,1.165877 -0.180522,0.525396 -0.79145,1.719346 -1.031113,2.015126 l -0.06602,0.08148 -0.410963,-0.320855 C 17.458871,15.929536 17.261032,15.79784 16.86009,15.58651 16.098738,15.185212 15.029115,14.836943 13.890995,14.619772 13.258121,14.49901 12.944038,14.4806 11.765665,14.495197 c -1.245752,0.01543 -1.345028,0.02824 -2.4789925,0.319794 -1.4816428,0.380946 -2.326877,0.777514 -3.3008713,1.548709 l -0.3200089,0.253379 z m 7.3765677,-3.597182 c 1.18025,-0.35792 2.091731,-1.266109 2.459578,-2.450694 0.07833,-0.252252 0.07946,-0.26633 0.07883,-0.9810427 C 15.509519,8.6930229 15.49277,8.5838285 15.297957,8.1278558 14.899612,7.1955008 14.177805,6.50477 13.224074,6.1432584 12.87215,6.0098614 12.695101,5.9816613 12.113744,5.9664059 11.621043,5.9534771 11.525964,5.958691 11.260663,6.013187 10.210779,6.2288465 9.2988747,6.9309452 8.8007684,7.9071235 8.6616451,8.179774 8.5487445,8.5026659 8.5038121,8.7564073 c -0.046152,0.2606266 -0.037587,1.2156367 0.013531,1.5087677 0.1737091,0.996123 0.9548904,1.976037 1.9613299,2.460293 0.251875,0.121192 0.633981,0.255143 0.838862,0.294073 0.0391,0.0074 0.371801,0.01021 0.739337,0.0062 0.628873,-0.0069 0.682783,-0.01173 0.914955,-0.08214 z"
     id="path879" />
  <path
     style="fill:#55ff99;stroke-width:0.0028436"
     d="M 10.663507,19.802059 C 10.279566,19.714119 9.7218624,19.556156 9.3610827,19.433162 8.6490932,19.190437 7.3267945,18.449094 7.2620673,18.256354 c -0.026167,-0.07792 0.3323909,-0.409469 0.6415965,-0.593271 0.4866754,-0.289296 1.373404,-0.627809 2.1258292,-0.811544 0.701519,-0.171305 1.211093,-0.232214 1.941553,-0.232073 0.92142,1.77e-4 1.716777,0.126784 2.712266,0.431744 0.366089,0.112148 1.00563,0.3695 1.240166,0.499043 0.387034,0.213773 0.850904,0.612248 0.816647,0.701519 -0.04072,0.106103 -0.579797,0.465008 -1.144256,0.761812 -0.579677,0.304807 -1.183571,0.53065 -1.899984,0.710554 -0.329716,0.0828 -0.38338,0.08776 -1.198255,0.110768 -1.283151,0.03623 -1.553673,0.03139 -1.834123,-0.03285 z"
     id="path1066" />
  <path
     style="fill:#ffb380;stroke-width:0.0028436"
     d="m 11.6786,10.777273 c -0.330107,-0.09076 -0.681139,-0.401035 -0.863663,-0.763393 -0.09861,-0.1957722 -0.102439,-0.2147263 -0.101369,-0.5020317 0.0013,-0.3395794 0.0254,-0.4163358 0.226225,-0.7194703 0.137231,-0.2071443 0.305349,-0.3496775 0.606396,-0.514113 l 0.186,-0.1015952 0.311631,0.022987 c 0.34738,0.025625 0.427779,0.056167 0.713771,0.2711514 0.173122,0.1301376 0.354789,0.3416613 0.454497,0.5291913 0.04431,0.08333 0.05295,0.1643119 0.05312,0.4976303 1.94e-4,0.3890508 -0.0017,0.4016352 -0.08511,0.5533672 -0.170203,0.309772 -0.554833,0.630827 -0.866696,0.723441 -0.181371,0.05386 -0.444924,0.05504 -0.634799,0.0028 z"
     id="path1253" />
  <path
     style="fill:#ffb380;stroke-width:0.0028436"
     d="m 10.805687,19.813848 c -0.220276,-0.03882 -0.9235026,-0.230123 -1.2931662,-0.351782 -0.8152575,-0.268306 -2.2329,-1.050267 -2.2329,-1.231652 0,-0.04627 0.3129511,-0.337057 0.4976618,-0.46242 0.4610296,-0.312899 1.3506173,-0.668865 2.2260244,-0.890738 1.675418,-0.424635 3.546149,-0.281985 5.260993,0.401169 0.486092,0.193648 0.7521,0.332455 1.01611,0.530222 0.320348,0.23997 0.461625,0.392139 0.422551,0.455128 -0.123866,0.199676 -1.15807,0.796525 -1.873577,1.081258 -0.763522,0.303841 -1.282791,0.426587 -1.947868,0.460442 -0.522823,0.02661 -1.939906,0.03233 -2.075829,0.0084 z"
     id="path1357" />
  <path
     style="fill:#ffb380;stroke-width:0.0028436"
     d=""
     id="path1425" />
  <path
     style="fill:#ffb380;stroke-width:0.000390625"
     d="m 11.154297,19.90422 c -0.07819,-0.0036 -0.147092,-0.0084 -0.145356,-0.01017 7.74e-4,-7.74e-4 0.170905,-0.0032 0.378069,-0.0053 1.422592,-0.01464 1.550089,-0.01709 1.743849,-0.03351 0.128757,-0.01091 0.225787,-0.02727 0.427735,-0.07214 0.648102,-0.143992 1.140737,-0.306633 1.689453,-0.557764 0.107306,-0.04911 0.368795,-0.179758 0.472656,-0.236152 0.540935,-0.293714 1.023301,-0.62583 1.080465,-0.743917 0.008,-0.01648 0.0081,-0.01835 0.0024,-0.03036 -0.02077,-0.04356 -0.195948,-0.218404 -0.35712,-0.356442 -0.101493,-0.08693 -0.169783,-0.136329 -0.294101,-0.212768 -0.48976,-0.301136 -1.18849,-0.57142 -2.017727,-0.780501 -0.823324,-0.20759 -1.541186,-0.30073 -2.247898,-0.291656 -0.311194,0.004 -0.557265,0.02093 -0.865235,0.05956 -0.352342,0.04419 -0.762192,0.123302 -1.115234,0.215265 -0.107018,0.02788 -0.1015625,0.02683 -0.1015625,0.01953 0,-0.0075 0.010822,-0.01069 0.161602,-0.04764 0.3244595,-0.07951 0.6534655,-0.143435 0.9731635,-0.189082 0.361448,-0.05161 0.59199,-0.06678 1.013499,-0.0667 0.395701,7.2e-5 0.691689,0.0152 0.959157,0.04903 0.873221,0.110438 1.890064,0.382908 2.648438,0.709667 0.134006,0.05774 0.307438,0.141181 0.416547,0.200411 0.260083,0.141186 0.476665,0.303764 0.697054,0.523246 0.09384,0.09346 0.148627,0.160294 0.156061,0.190396 0.0041,0.01651 -0.01203,0.03972 -0.05791,0.08347 -0.07057,0.06729 -0.177882,0.146596 -0.387534,0.286395 -0.528095,0.352142 -1.076212,0.63343 -1.660157,0.851978 -0.448117,0.167713 -0.959033,0.305988 -1.414062,0.382706 -0.257292,0.04338 -0.434223,0.0535 -1.09375,0.06253 -0.309128,0.0042 -0.969933,0.0042 -1.0625,-1.03e-4 z"
     id="path1503" />
  <path
     style="fill:#ffb380;stroke-width:0.000390625"
     d="m 10.722656,19.838311 c -0.400048,-0.08683 -0.624358,-0.141826 -0.8609409,-0.211086 -0.029865,-0.0087 -0.054914,-0.0159 -0.055664,-0.0159 -7.499e-4,0 -0.00136,-0.0035 -0.00136,-0.0078 0,-0.0043 0.0014,-0.0078 0.00312,-0.0078 0.00172,0 0.049616,0.01325 0.1064453,0.02945 0.3047696,0.08687 0.8736966,0.225037 0.9722606,0.236124 0.107172,0.01206 0.296235,0.01443 0.625207,0.0079 0.106347,-0.0021 0.441211,-0.0074 0.74414,-0.01173 0.986684,-0.01409 0.994776,-0.01471 1.384766,-0.105893 0.335189,-0.07837 0.650645,-0.170399 0.949219,-0.276925 0.605672,-0.216091 1.220722,-0.524631 1.763672,-0.884746 0.187841,-0.124588 0.29495,-0.205203 0.365739,-0.275277 0.04428,-0.04384 0.05634,-0.06394 0.05067,-0.08449 -0.01734,-0.0628 -0.193941,-0.242727 -0.397579,-0.405062 -0.16975,-0.135321 -0.298657,-0.216536 -0.524688,-0.330566 -0.476049,-0.240162 -1.077858,-0.455054 -1.734375,-0.619305 -0.951242,-0.237986 -1.812691,-0.323753 -2.667968,-0.265627 -0.507988,0.03452 -1.001975,0.11702 -1.5517582,0.259143 -0.081432,0.02105 -0.088867,0.02236 -0.088867,0.01563 0,-0.004 8.76e-4,-0.0073 0.00195,-0.0073 0.00107,0 0.056881,-0.014 0.1240234,-0.03111 0.5481648,-0.13971 1.0932578,-0.226938 1.6103588,-0.257695 0.296186,-0.01762 0.675904,-0.01468 0.978515,0.0076 0.607873,0.04471 1.292767,0.173334 1.986328,0.373049 0.830712,0.239207 1.544867,0.563187 1.905008,0.864216 0.167872,0.140318 0.379938,0.350129 0.391861,0.387695 0.01064,0.03354 -0.101721,0.141511 -0.281244,0.270261 -0.292746,0.209951 -0.674698,0.436348 -1.052734,0.623995 -0.580008,0.2879 -1.129034,0.48392 -1.777808,0.634735 -0.382892,0.08901 -0.493192,0.104801 -0.806176,0.115436 -0.169551,0.0058 -0.737037,0.01297 -1.699219,0.02158 l -0.230469,0.0021 z"
     id="path1542" />
  <path
     style="fill:#ffb380;stroke-width:0.000390625"
     d="m 11.11917,19.901375 c -0.01932,-7.24e-4 -0.03681,-0.003 -0.03887,-0.0051 -0.0024,-0.0024 0.02808,-0.0037 0.08395,-0.0038 0.08283,-1.6e-5 0.292922,-0.0023 1.099414,-0.01171 0.862996,-0.01012 0.933151,-0.0154 1.304687,-0.09816 0.622353,-0.138627 1.104092,-0.296354 1.638672,-0.536519 0.114402,-0.0514 0.422097,-0.204854 0.539063,-0.268848 0.573774,-0.313923 1.0625,-0.659631 1.0625,-0.751576 0,-0.04087 -0.296986,-0.327848 -0.482422,-0.466163 -0.167843,-0.125192 -0.450729,-0.281823 -0.74327,-0.411541 -0.765225,-0.339314 -1.854688,-0.627263 -2.75673,-0.728613 -0.436488,-0.04904 -0.897854,-0.06058 -1.332031,-0.03332 -0.479704,0.03012 -1.029307,0.119178 -1.5542479,0.251844 -0.1157989,0.02927 -0.1451484,0.03497 -0.1252882,0.02434 0.00957,-0.0051 0.1942451,-0.05103 0.3240671,-0.08056 0.360503,-0.08199 0.753397,-0.148752 1.082031,-0.183852 0.215878,-0.02306 0.378297,-0.02972 0.726563,-0.02978 0.566032,-1.1e-4 0.84744,0.02121 1.320312,0.100052 1.126277,0.187773 2.347108,0.601171 2.936175,0.994247 0.148038,0.09878 0.267265,0.194304 0.407795,0.326707 0.127474,0.120103 0.216577,0.224216 0.216577,0.253061 0,0.04266 -0.143057,0.160988 -0.414063,0.342495 -0.444711,0.297847 -0.887053,0.538826 -1.354838,0.738091 -0.50307,0.214295 -1.04516,0.381159 -1.576802,0.485366 -0.353748,0.06934 -0.498619,0.08124 -1.123047,0.09229 -0.195243,0.0035 -1.153802,0.0042 -1.240205,9.61e-4 z"
     id="path1581" />
  <path
     style="fill:#ffb380;stroke-width:0.000390625"
     d="m 10.976563,19.864792 c -0.08378,-0.0047 -0.117644,-0.0096 -0.212747,-0.03078 -0.312573,-0.06951 -0.583336,-0.13724 -0.8468238,-0.211838 -0.097493,-0.0276 -0.1123047,-0.03279 -0.1123047,-0.03935 0,-0.0053 0.002,-0.007 0.00684,-0.0056 0.3301755,0.09489 0.4696195,0.132867 0.6787105,0.18486 0.346807,0.08624 0.433862,0.09534 0.91211,0.09531 0.300121,-1.5e-5 0.604634,-0.0062 1.257812,-0.02547 0.670581,-0.01981 0.735638,-0.02726 1.126953,-0.129228 0.624824,-0.162807 1.149689,-0.356546 1.669922,-0.616403 0.495977,-0.24774 1.046678,-0.590622 1.229461,-0.765495 0.04045,-0.0387 0.0557,-0.06105 0.0557,-0.08164 0,-0.109048 -0.458839,-0.494741 -0.828405,-0.696344 -0.176143,-0.09609 -0.615994,-0.280259 -0.974329,-0.407962 -0.369555,-0.131702 -0.889061,-0.272542 -1.325246,-0.359278 -0.398505,-0.07924 -0.765662,-0.124133 -1.217723,-0.14888 -0.12117,-0.0066 -0.608121,-0.0092 -0.761718,-0.004 -0.609221,0.0206 -1.11462,0.09698 -1.7570561,0.265532 -0.060257,0.01581 -0.073247,0.01816 -0.072266,0.01306 0.00139,-0.0072 -0.0073,-0.0046 0.1379152,-0.04163 0.5205189,-0.132771 1.0062299,-0.212806 1.4941409,-0.246203 0.165734,-0.01134 0.24055,-0.01413 0.441406,-0.01646 0.309548,-0.0036 0.580923,0.0086 0.886719,0.03988 0.944822,0.09659 2.021584,0.38006 2.850026,0.750308 0.187098,0.08362 0.430328,0.211812 0.545181,0.287337 0.145686,0.0958 0.310933,0.229993 0.444059,0.360608 0.09927,0.0974 0.155848,0.166151 0.162809,0.197845 0.0198,0.09015 -0.656144,0.540833 -1.275512,0.850434 -0.614038,0.306935 -1.200289,0.515439 -1.900391,0.675885 -0.344812,0.07902 -0.367856,0.08067 -1.314453,0.09421 -0.299707,0.0043 -0.635449,0.0096 -0.746094,0.0117 -0.229496,0.0045 -0.471592,0.0043 -0.554687,-4.18e-4 z"
     id="path1620" />
  <path
     style="fill:#ffb380;stroke-width:0.000390625"
     d="m 13.689453,19.730239 c 0.0021,-8.61e-4 0.05488,-0.01487 0.117188,-0.03113 0.837965,-0.21866 1.527916,-0.507538 2.258733,-0.945716 0.308286,-0.18484 0.534642,-0.342989 0.63403,-0.442979 0.04613,-0.04641 0.05248,-0.0691 0.03122,-0.111552 -0.05424,-0.108274 -0.338181,-0.355379 -0.619296,-0.538946 -0.06349,-0.04146 -0.137722,-0.08693 -0.162781,-0.09972 -0.0086,-0.0044 -0.01472,-0.009 -0.0135,-0.01022 0.0062,-0.0062 0.196873,0.106004 0.283603,0.166939 0.206087,0.144791 0.446594,0.362971 0.526864,0.477954 0.02186,0.03131 0.02382,0.04421 0.01024,0.06737 -0.05449,0.09298 -0.423945,0.352394 -0.847552,0.595115 -0.605049,0.346685 -1.224806,0.606558 -1.886033,0.790841 -0.119003,0.03317 -0.319549,0.0843 -0.32909,0.08391 -0.0041,-1.69e-4 -0.0058,-0.001 -0.0036,-0.0019 z"
     id="path1659" />
  <path
     style="fill:#ffb380;stroke-width:0.000390625"
     d="m 11.212891,19.853021 c -0.213917,-0.0033 -0.320148,-0.01111 -0.447266,-0.03296 -0.146717,-0.02522 -0.540791,-0.126469 -0.8974609,-0.230575 -0.052198,-0.01524 -0.063477,-0.0198 -0.063477,-0.02569 0,-0.0039 0.00138,-0.0072 0.00306,-0.0072 0.00168,0 0.05837,0.01588 0.1259766,0.0353 0.3353553,0.09631 0.6790363,0.185432 0.8338573,0.216244 0.07863,0.01565 0.157741,0.01826 0.625,0.02065 0.635677,0.0033 1.267501,-0.0073 1.570313,-0.02626 0.603473,-0.03776 1.10485,-0.157309 1.798828,-0.428909 0.22764,-0.08909 0.41917,-0.175028 0.673602,-0.302238 0.454621,-0.227299 0.885853,-0.482775 1.121236,-0.664257 0.05453,-0.04205 0.125508,-0.109155 0.142924,-0.13514 0.01071,-0.01597 0.01192,-0.0205 0.01019,-0.0381 -0.0049,-0.04981 -0.06224,-0.122103 -0.180371,-0.227358 -0.179076,-0.15956 -0.406635,-0.321017 -0.608961,-0.432069 -0.233606,-0.128221 -0.621831,-0.294204 -0.988695,-0.42271 -0.05156,-0.01806 -0.102539,-0.03608 -0.113282,-0.04004 -0.03196,-0.01179 -0.24776,-0.08023 -0.333984,-0.105918 -0.285913,-0.08519 -0.608562,-0.163087 -0.904297,-0.21833 -0.758326,-0.141653 -1.511157,-0.184183 -2.253906,-0.127329 -0.426246,0.03263 -0.858922,0.101591 -1.273438,0.202975 -0.072324,0.01769 -0.2174447,0.05558 -0.2412102,0.06298 -0.00496,0.0015 -0.00684,-4.3e-5 -0.00684,-0.0058 0,-0.0098 -2.302e-4,-0.0098 0.1796875,-0.05484 0.5691117,-0.142562 0.9683877,-0.204131 1.5234377,-0.234915 0.119434,-0.0066 0.630398,-0.0092 0.77539,-0.004 0.768227,0.02796 1.436184,0.141779 2.263672,0.385724 0.258462,0.07619 0.474423,0.151996 0.771484,0.270787 0.329736,0.131857 0.534505,0.226107 0.67918,0.312609 0.355932,0.212815 0.740742,0.547523 0.740742,0.644299 0,0.01811 -0.01356,0.0377 -0.05217,0.07536 -0.153723,0.149943 -0.611685,0.442204 -1.087502,0.694017 -0.588435,0.311413 -1.255141,0.557239 -1.991187,0.734185 -0.235095,0.05652 -0.34921,0.06673 -0.943359,0.08445 -0.754397,0.0225 -1.158296,0.02945 -1.451172,0.02496 z"
     id="path1698" />
  <path
     style="fill:#ffb380;stroke-width:0.000390625"
     d=""
     id="path1737" />
  <path
     style="fill:#ffb380;stroke-width:0.000390625"
     d="m 11.697266,19.966695 c -0.329388,-0.0061 -0.40666,-0.0105 -0.613282,-0.03527 -0.328242,-0.03936 -0.688787,-0.108725 -1.042968,-0.200663 -0.1115921,-0.02897 -0.231598,-0.06262 -0.2348292,-0.06585 -0.0012,-0.0012 -0.0016,-0.0047 -8.68e-4,-0.0077 0.00106,-0.0044 0.013442,-0.0021 0.061869,0.01148 0.4971292,0.139781 0.9955042,0.239305 1.2968752,0.258981 0.277327,0.01811 1.111741,0.01386 1.541015,-0.0078 0.431713,-0.02182 0.725441,-0.06736 1.199219,-0.185895 0.572794,-0.143312 1.116243,-0.345827 1.650391,-0.615013 0.359657,-0.181251 0.622422,-0.340785 1.041015,-0.632038 0.15431,-0.107367 0.234898,-0.174283 0.251706,-0.209003 0.02203,-0.04551 7.27e-4,-0.08854 -0.09198,-0.185735 -0.165851,-0.173881 -0.441542,-0.393692 -0.638242,-0.508878 -0.860936,-0.504158 -2.314555,-0.922613 -3.558593,-1.024419 -0.371058,-0.03036 -0.667921,-0.03265 -1.027344,-0.0079 -0.510998,0.03519 -1.077247,0.126998 -1.6221879,0.263009 -0.082752,0.02065 -0.1043703,0.02486 -0.1034625,0.02015 0.00241,-0.0125 0.4162274,-0.108072 0.7022134,-0.162172 C 11.104081,16.559182 11.424231,16.52838 12,16.528411 c 0.424983,2.2e-5 0.690788,0.016 0.990234,0.05953 0.653729,0.09502 1.298933,0.246793 1.892579,0.44518 0.483455,0.161564 0.911698,0.348613 1.246093,0.544273 0.07589,0.0444 0.177695,0.108903 0.227724,0.144275 0.167504,0.118429 0.40685,0.343783 0.500216,0.470972 0.02095,0.02854 0.03514,0.06126 0.0304,0.07011 -0.01634,0.03053 -0.169698,0.154179 -0.349547,0.281837 -0.324204,0.230121 -0.626728,0.411591 -0.996683,0.597863 -0.950507,0.478578 -1.951102,0.748556 -3.011719,0.812612 -0.216396,0.01307 -0.522873,0.01738 -0.832031,0.0117 z"
     id="path1776" />
  <path
     style="fill:#ffb380;stroke-width:0.000390625"
     d="m 11.574219,19.962838 c -0.218153,-0.0057 -0.332415,-0.01391 -0.519531,-0.03714 -0.366274,-0.04547 -0.791332,-0.132738 -1.1826177,-0.242808 -0.034912,-0.0098 -0.063477,-0.01939 -0.063477,-0.02127 0,-0.0062 0.011126,-0.0037 0.1282227,0.02813 0.42758,0.11637 0.85359,0.203336 1.135449,0.231792 0.1434,0.01448 0.209413,0.01596 0.708984,0.0159 1.029945,-1.19e-4 1.376301,-0.02792 1.927734,-0.154716 0.66446,-0.152789 1.229109,-0.354538 1.826172,-0.652491 0.304266,-0.151838 0.52283,-0.278849 0.814453,-0.473295 0.300638,-0.200456 0.459391,-0.318433 0.492029,-0.365653 0.0154,-0.02228 0.01836,-0.05738 0.007,-0.08274 -0.04402,-0.0981 -0.358934,-0.381263 -0.616138,-0.554012 -0.0791,-0.05312 -0.120227,-0.07785 -0.223534,-0.134387 -0.567791,-0.310726 -1.378214,-0.594028 -2.219885,-0.776009 -0.510824,-0.110448 -1.020692,-0.180753 -1.472657,-0.203065 -0.04619,-0.0023 -0.09629,-0.0048 -0.111328,-0.0056 -0.01504,-7.82e-4 0.02715,-7.57e-4 0.09375,5.6e-5 0.339487,0.0041 0.640711,0.03757 1.105469,0.122691 1.327792,0.243175 2.565263,0.718524 3.118699,1.197984 0.108027,0.09359 0.219029,0.202762 0.286553,0.281836 0.04371,0.05119 0.06305,0.07906 0.07243,0.104363 l 0.0067,0.01797 -0.03514,0.03398 c -0.153771,0.148696 -0.609569,0.460558 -0.966781,0.661483 -1.090988,0.613657 -2.224502,0.941692 -3.466797,1.003279 -0.109611,0.0054 -0.68416,0.0079 -0.845703,0.0037 z"
     id="path1815" />
  <path
     style="fill:#ffb380;stroke-width:0.000390625"
     d=""
     id="path1854" />
  <path
     style="fill:#ffb380;stroke-width:0.000390625"
     d="m 11.736328,19.994117 c -0.638005,-0.02429 -1.246306,-0.115718 -1.8222655,-0.273884 -0.1103216,-0.0303 -0.109375,-0.02994 -0.109375,-0.04097 0,-0.0081 0.00142,-0.0094 0.00775,-0.0074 0.066043,0.02096 0.3234995,0.08797 0.4492825,0.116943 0.413891,0.09532 0.863171,0.163538 1.146297,0.174043 0.175945,0.0065 0.620352,0.01254 0.738468,0.01 0.415051,-0.0089 0.726489,-0.03429 1.085938,-0.08837 0.980264,-0.147472 1.929234,-0.488984 2.808594,-1.010749 0.296129,-0.175707 0.712052,-0.468585 0.823712,-0.580028 0.02619,-0.02614 0.02679,-0.02719 0.02496,-0.04348 -0.0038,-0.03391 -0.05876,-0.104551 -0.166824,-0.214494 -0.146543,-0.149091 -0.290172,-0.270031 -0.426831,-0.359405 -0.734095,-0.480088 -1.977378,-0.893703 -3.264778,-1.086122 -0.323834,-0.0484 -0.591713,-0.06532 -1.033203,-0.06525 -0.416109,6.6e-5 -0.682356,0.01578 -0.972656,0.0574 -0.383424,0.05498 -0.75869,0.127961 -1.1212712,0.218069 -0.098844,0.02456 -0.099433,0.02466 -0.099433,0.01581 0,-0.0084 0.00611,-0.01039 0.1123047,-0.03645 0.4003245,-0.09822 0.7889535,-0.1706 1.1650385,-0.216976 0.705444,-0.08699 1.287736,-0.0802 2.011008,0.02345 1.32143,0.189375 2.680829,0.670294 3.379617,1.195619 0.08926,0.0671 0.151178,0.120802 0.228726,0.198369 0.100258,0.100282 0.161921,0.179301 0.211144,0.270576 0.01384,0.02566 0.01461,0.02861 0.0087,0.0332 -0.215468,0.168012 -0.377196,0.284802 -0.569683,0.411388 -0.936749,0.616041 -1.974742,1.020905 -3.078124,1.200605 -0.28967,0.04718 -0.581938,0.0773 -0.916016,0.09442 -0.104464,0.0054 -0.513537,0.0078 -0.621094,0.0037 z"
     id="path1893" />
  <path
     style="fill:#ffb380;stroke-width:0.000390625"
     d=""
     id="path1932" />
  <path
     style="fill:#ffb380;stroke-width:0.000390625"
     d=""
     id="path1971" />
  <path
     style="fill:#ffb380;stroke-width:0.000390625"
     d="m 11.321992,19.9314 c -0.212573,-0.0063 -0.330424,-0.01892 -0.566133,-0.06067 -0.265941,-0.0471 -0.5953,-0.12263 -0.8554684,-0.196176 -0.081371,-0.023 -0.093905,-0.02757 -0.094928,-0.03456 -0.00111,-0.0076 0.00309,-0.0068 0.072266,0.013 0.3460864,0.09926 0.7718014,0.196385 1.0148494,0.231525 0.17847,0.0258 0.290865,0.02913 0.886719,0.02623 1.148027,-0.0056 1.325983,-0.01694 1.791016,-0.114309 0.940037,-0.196815 1.825012,-0.555796 2.640556,-1.071113 0.262397,-0.1658 0.476368,-0.317796 0.570008,-0.404907 0.02898,-0.02696 0.05506,-0.06296 0.05506,-0.076 0,-0.0282 -0.06084,-0.103379 -0.172766,-0.21347 -0.215081,-0.211559 -0.406298,-0.35643 -0.647546,-0.490598 -0.722683,-0.401915 -1.963517,-0.778003 -3.044922,-0.922894 -0.2975,-0.03986 -0.600258,-0.05681 -1.015625,-0.05686 -0.359247,-4e-5 -0.588021,0.01204 -0.851562,0.04497 -0.3935,0.04917 -0.801545,0.126028 -1.1947347,0.225032 -0.051245,0.0129 -0.095629,0.0244 -0.098633,0.02556 -0.0035,0.0013 -0.00546,-5.74e-4 -0.00546,-0.0053 0,-0.0065 0.013592,-0.01081 0.1044922,-0.03346 0.4307935,-0.107377 0.8712095,-0.186957 1.2900395,-0.2331 0.565483,-0.0623 1.038019,-0.0618 1.603515,0.0017 1.1844,0.133025 2.472246,0.519098 3.28711,0.985414 0.19862,0.113662 0.449101,0.308728 0.632878,0.492862 0.117095,0.117323 0.143921,0.16351 0.122275,0.210531 -0.01716,0.03727 -0.105644,0.109127 -0.294216,0.238916 -0.425152,0.292622 -0.662929,0.434986 -1.037109,0.620946 -0.598244,0.297316 -1.172319,0.500587 -1.835938,0.65008 -0.395095,0.089 -0.681241,0.123361 -1.158203,0.139071 -0.325396,0.01072 -0.956608,0.01472 -1.197539,0.0076 z"
     id="path2010" />
  <path
     style="fill:#ffb380;stroke-width:0.000390625"
     d="m 11.300781,19.929272 c -0.096,-0.0044 -0.188842,-0.0104 -0.238281,-0.01546 -0.222768,-0.02283 -0.602363,-0.09681 -0.951172,-0.185373 -0.1426169,-0.03621 -0.2685881,-0.0711 -0.2896722,-0.08023 -0.035143,-0.01522 0.00158,-0.0082 0.1011328,0.01925 0.4342354,0.119851 0.8328124,0.20601 1.0676804,0.230796 0.106324,0.01122 0.22673,0.01381 0.64039,0.01377 0.886047,-8.7e-5 1.269518,-0.01131 1.544312,-0.0452 0.25188,-0.03106 0.637898,-0.1155 0.982746,-0.214964 0.839908,-0.242255 1.656417,-0.633652 2.377239,-1.13954 0.211087,-0.148145 0.300717,-0.228787 0.300767,-0.270607 6.6e-5,-0.05683 -0.282313,-0.336132 -0.511704,-0.506125 -0.08904,-0.06598 -0.222781,-0.151128 -0.317587,-0.202188 -0.0392,-0.02111 -0.05097,-0.03238 -0.01455,-0.01392 0.128185,0.06496 0.318136,0.191829 0.466898,0.311853 0.105864,0.08541 0.245867,0.213244 0.304945,0.278432 0.103614,0.114334 0.10912,0.147192 0.03592,0.214387 -0.104839,0.09624 -0.559736,0.404483 -0.838911,0.56846 -0.21461,0.126054 -0.532711,0.287057 -0.804845,0.407365 -0.512615,0.226622 -1.082354,0.405815 -1.64828,0.518414 -0.325654,0.06479 -0.573315,0.08981 -1.046875,0.105755 -0.110954,0.0037 -1.095182,0.0081 -1.160157,0.0051 z"
     id="path2049" />
  <path
     style="fill:#ffb380;stroke-width:0.000390625"
     d="m 11.298828,19.929277 c -0.111747,-0.0055 -0.187738,-0.01049 -0.236328,-0.01547 -0.226989,-0.02326 -0.626317,-0.101573 -0.974609,-0.191133 -0.1300436,-0.03344 -0.2477418,-0.06643 -0.2662352,-0.07462 -0.034965,-0.01549 0.00424,-0.0074 0.1256098,0.02587 0.3861224,0.105895 0.7688584,0.19 0.9941404,0.218459 0.138641,0.01751 0.151275,0.01779 0.794922,0.01745 1.115641,-5.83e-4 1.350286,-0.01359 1.765625,-0.09785 0.583968,-0.118473 1.137509,-0.293885 1.666026,-0.527948 0.217693,-0.09641 0.478443,-0.22679 0.675771,-0.337902 0.256218,-0.144272 0.513132,-0.306751 0.729793,-0.46154 0.181098,-0.129382 0.262394,-0.204506 0.262394,-0.242474 0,-0.05418 -0.270141,-0.324278 -0.490165,-0.49008 -0.09635,-0.0726 -0.241176,-0.165803 -0.343035,-0.220747 -0.01891,-0.0102 -0.03346,-0.01945 -0.03235,-0.02056 0.0024,-0.0024 0.09604,0.04844 0.158213,0.08598 0.186532,0.112607 0.412692,0.29109 0.582788,0.459933 0.129323,0.128369 0.155824,0.17493 0.127285,0.223628 -0.02727,0.04654 -0.155187,0.143259 -0.45586,0.344687 -0.329773,0.220925 -0.520142,0.33238 -0.846218,0.495436 -0.593001,0.296534 -1.15684,0.500042 -1.792999,0.647151 -0.452677,0.104681 -0.723776,0.13778 -1.282657,0.156605 -0.111065,0.0037 -1.10164,0.0081 -1.16211,0.0051 z"
     id="path2088" />
  <path
     style="fill:#ffb380;stroke-width:0.000390625"
     d=""
     id="path2127" />
  <path
     style="fill:#ffb380;stroke-width:0.000390625"
     d="m 13.703125,19.726448 c 0.0097,-0.0028 0.06214,-0.01679 0.11661,-0.03099 0.759025,-0.198001 1.403792,-0.459629 2.072843,-0.8411 0.372682,-0.212491 0.690247,-0.426795 0.806639,-0.544347 0.04662,-0.04708 0.05286,-0.07024 0.03027,-0.112261 -0.06411,-0.119261 -0.358281,-0.371721 -0.651367,-0.559006 -0.0376,-0.02402 -0.08557,-0.05343 -0.106598,-0.06534 -0.04199,-0.02378 -0.04897,-0.03223 -0.01067,-0.01289 0.0942,0.04755 0.22303,0.128795 0.324295,0.204508 0.214865,0.160647 0.4573,0.394757 0.477388,0.460993 0.0041,0.01349 0.0036,0.01696 -0.005,0.03306 -0.04702,0.08869 -0.406231,0.343056 -0.825235,0.584367 -0.687844,0.396142 -1.375176,0.674287 -2.138281,0.865308 -0.05203,0.01303 -0.09774,0.0235 -0.101562,0.02328 -0.0038,-2.24e-4 9.54e-4,-0.0027 0.01062,-0.0056 z"
     id="path2166" />
  <path
     style="fill:#ffb380;stroke-width:0.000390625"
     d=""
     id="path2205" />
  <path
     style="fill:#ffb380;stroke-width:0.000390625"
     d="m 10.986201,19.821876 c -0.06237,-0.0017 -0.130051,-0.0048 -0.150391,-0.0069 -0.103614,-0.0107 -0.499313,-0.111094 -0.9578803,-0.243019 l -0.073242,-0.02107 V 18.24155 16.932195 l 0.020508,-0.0059 c 0.057477,-0.0165 0.2273813,-0.05975 0.3154293,-0.08029 0.821692,-0.191747 1.68935,-0.250453 2.570313,-0.173907 0.873728,0.07592 1.743128,0.28408 2.568359,0.614949 0.539066,0.216133 0.798612,0.359081 1.123047,0.618532 0.199636,0.15965 0.304687,0.275677 0.304687,0.336524 0,0.06869 -0.313433,0.296077 -0.757812,0.549773 -0.428873,0.244842 -0.827794,0.43773 -1.220703,0.590237 -0.676421,0.262551 -1.160428,0.376853 -1.763672,0.416506 -0.156134,0.01026 -0.401441,0.0177 -0.779297,0.02363 -0.281395,0.0044 -1.030378,0.0042 -1.199346,-3.85e-4 z"
     id="path2244" />
  <path
     style="fill:#ffb380;stroke-width:0.000390625"
     d="M 9.7890625,19.662054 C 9.7836914,19.660215 9.7379883,19.646131 9.6875,19.630756 9.186811,19.47829 8.7007592,19.276786 8.2890625,19.051002 7.7504474,18.755613 7.1661918,18.364747 7.1137458,18.264717 c -0.00382,-0.0073 -0.00294,-0.01194 0.00532,-0.02825 0.017769,-0.03506 0.073204,-0.104624 0.1526521,-0.191545 0.3885558,-0.425104 1.2108138,-0.840272 2.2624172,-1.142321 0.1878985,-0.05397 0.2672595,-0.07394 0.270838,-0.06815 0.0025,0.004 -0.00964,0.0085 -0.054199,0.02009 -0.630583,0.163367 -1.3087541,0.424068 -1.7664034,0.679037 -0.1456168,0.08113 -0.316198,0.189252 -0.4101572,0.259984 -0.203825,0.153437 -0.4335928,0.398437 -0.4335928,0.462337 0,0.07918 0.5991627,0.48022 1.2226563,0.818357 0.1068103,0.05793 0.3214143,0.164245 0.4101562,0.203199 0.2937643,0.128951 0.6362685,0.254856 0.9457642,0.347664 0.077513,0.02324 0.088111,0.02737 0.086459,0.0337 -0.00208,0.0079 -0.00257,0.008 -0.016598,0.0032 z"
     id="path2283" />
  <path
     style="fill:#ffb380;stroke-width:0.000390625"
     d="M 10.425781,19.790284 C 9.8219199,19.650045 9.2474152,19.465551 8.8046875,19.269691 8.2920688,19.042912 7.4119066,18.513474 7.2107957,18.310927 c -0.03904,-0.03932 -0.046012,-0.05247 -0.039438,-0.07441 0.00983,-0.03282 0.089102,-0.128511 0.1742963,-0.210412 0.132325,-0.127209 0.269287,-0.238724 0.3906745,-0.318088 0.4691339,-0.306723 1.1562801,-0.594882 1.9296875,-0.809225 0.1503445,-0.04167 0.1386818,-0.03908 0.1386255,-0.0307 -3.9e-5,0.0057 -0.014043,0.01074 -0.077148,0.028 -0.6421323,0.175615 -1.2993813,0.429342 -1.7211482,0.664439 -0.2237575,0.124725 -0.4306752,0.274685 -0.6254851,0.453308 -0.1338107,0.122692 -0.2025585,0.217126 -0.184057,0.252826 0.058764,0.113387 0.8063185,0.590321 1.3569245,0.865707 0.513252,0.256703 1.1732493,0.484149 1.8603363,0.641103 0.05264,0.01202 0.09746,0.02251 0.09961,0.0233 0.0144,0.0053 -0.06108,-2.61e-4 -0.08789,-0.0065 z"
     id="path2322" />
  <path
     style="fill:#ffb380;stroke-width:0.000390625"
     d="M 9.6972656,19.578161 C 9.2148084,19.42814 8.7953861,19.258101 8.4277344,19.063479 c -0.5012293,-0.265334 -1.0545887,-0.617187 -1.19725,-0.76127 -0.033638,-0.03397 -0.038045,-0.04398 -0.029899,-0.06789 0.033441,-0.09814 0.3058513,-0.347287 0.5826176,-0.532856 0.088415,-0.05928 0.1353604,-0.0881 0.2235883,-0.137273 0.4186618,-0.233321 1.0511029,-0.47846 1.7002399,-0.659026 0.08153,-0.02268 0.096059,-0.02573 0.098109,-0.02058 0.00286,0.0072 0.015133,0.003 -0.1274056,0.0432 -0.2091514,0.05895 -0.4827625,0.14619 -0.6699219,0.21361 -0.451214,0.162541 -0.9962915,0.419037 -1.2419765,0.584435 -0.187276,0.126076 -0.4667936,0.379274 -0.530987,0.480988 -0.017803,0.02821 -0.016631,0.04236 0.00601,0.07248 0.124489,0.165607 0.9446575,0.66896 1.5201222,0.932928 0.268142,0.122997 0.6299614,0.257263 0.9607032,0.356503 0.076313,0.0229 0.083008,0.02562 0.083008,0.03375 0,0.0049 -4.395e-4,0.0088 -9.766e-4,0.0087 -5.371e-4,-1.02e-4 -0.048438,-0.01494 -0.1064453,-0.03298 z"
     id="path2361" />
  <path
     style="fill:#ffb380;stroke-width:0.000390625"
     d="M 9.6992188,19.558198 C 9.2210412,19.411595 8.8317754,19.254956 8.453125,19.056775 7.9426471,18.789596 7.4515586,18.479811 7.2856769,18.320332 7.2218339,18.258952 7.2152869,18.242152 7.2405759,18.20457 7.3071089,18.1057 7.54352,17.889088 7.7316042,17.75466 7.9367762,17.608019 8.35034,17.403062 8.8099906,17.220226 c 0.2342647,-0.09318 0.5646651,-0.20326 0.8638374,-0.287795 0.1369776,-0.03871 0.1296232,-0.03699 0.1320053,-0.03078 0.00143,0.0037 -0.025196,0.01285 -0.098012,0.03362 -0.6763813,0.192907 -1.4048476,0.486245 -1.8074303,0.727813 -0.1545388,0.09273 -0.3428209,0.236091 -0.4628906,0.35245 -0.094876,0.09194 -0.1467214,0.153077 -0.1680414,0.198144 -0.013851,0.02928 -0.014226,0.03549 -0.00338,0.05591 0.071307,0.134219 0.652397,0.500527 1.3100889,0.825856 0.4259504,0.210697 0.6755781,0.311144 1.078125,0.433825 0.064453,0.01964 0.1242187,0.03794 0.1328125,0.04066 0.014636,0.0046 0.024527,0.01818 0.012982,0.01779 -0.00284,-9.7e-5 -0.048236,-0.01338 -0.1008723,-0.02952 z"
     id="path2400" />
  <path
     style="fill:#ffb380;stroke-width:0.000390625"
     d="M 9.7539063,19.556006 C 9.7334961,19.54962 9.668457,19.529396 9.609375,19.511064 9.45715,19.46383 9.3419812,19.425225 9.2516996,19.39117 8.6847336,19.177306 7.795759,18.702017 7.4133927,18.408322 7.3547441,18.363274 7.2778865,18.287601 7.2680946,18.265263 c -0.00961,-0.02191 -0.00447,-0.03913 0.02463,-0.08259 0.072036,-0.107587 0.2809973,-0.295309 0.4846192,-0.43536 0.3737672,-0.257078 1.154771,-0.584837 1.9121094,-0.802442 0.055859,-0.01605 0.1046387,-0.0301 0.1083985,-0.03123 0.00495,-0.0015 0.00684,1.51e-4 0.00684,0.0059 0,0.0064 -0.00453,0.0092 -0.022461,0.01429 -0.439361,0.123645 -0.8521801,0.267184 -1.2236328,0.425462 -0.3250043,0.138487 -0.6291909,0.298217 -0.8032883,0.421811 -0.1848655,0.13124 -0.4626948,0.39051 -0.4760848,0.444283 -0.00451,0.0181 0.013395,0.04965 0.049548,0.08731 0.2260027,0.235446 1.1712542,0.756677 1.8954953,1.045215 0.1634734,0.06513 0.3099865,0.115656 0.5032751,0.173566 0.062302,0.01867 0.077148,0.02444 0.077148,0.02999 0,0.0091 -0.00635,0.0084 -0.050781,-0.0055 z"
     id="path2439" />
  <path
     style="fill:#ffb380;stroke-width:0.000390625"
     d="M 9.6621094,19.525624 C 9.3425068,19.424916 9.2322445,19.385474 9.0390625,19.302753 8.413715,19.034978 7.6102708,18.583244 7.3549263,18.355853 c -0.048163,-0.04289 -0.084533,-0.08557 -0.08781,-0.103032 -0.01404,-0.07484 0.3024387,-0.373948 0.5809112,-0.549027 0.3179915,-0.199925 0.8407221,-0.429896 1.4234565,-0.626238 0.1786831,-0.0602 0.5236858,-0.164547 0.5284176,-0.159816 0.00564,0.0056 -0.011398,0.01218 -0.093376,0.03586 -0.6974098,0.201441 -1.3169866,0.449846 -1.7651197,0.707684 -0.1971248,0.113417 -0.3689615,0.247866 -0.5548386,0.434119 -0.087158,0.08733 -0.1110868,0.11886 -0.1079681,0.142249 0.019113,0.143337 0.836255,0.635884 1.666545,1.00454 0.2811735,0.124843 0.4583585,0.190721 0.7980196,0.296703 0.052648,0.01643 0.071347,0.02609 0.048828,0.02523 -0.00483,-1.85e-4 -0.063281,-0.01751 -0.1298828,-0.03849 z"
     id="path2478" />
  <path
     style="fill:#ffb380;stroke-width:0.000390625"
     d="M 10.699219,19.790366 C 10.330535,19.703045 9.8078462,19.55727 9.5117746,19.459196 9.2202335,19.362623 8.8800982,19.216076 8.4726563,19.011492 7.8244058,18.685994 7.319359,18.35984 7.2847608,18.244361 c -0.00416,-0.01387 -0.00366,-0.01685 0.00538,-0.03217 0.042597,-0.07217 0.3044104,-0.311988 0.465294,-0.426207 0.3204146,-0.227477 0.9507851,-0.510163 1.6123113,-0.72303 0.8016689,-0.257963 1.4632689,-0.380539 2.2474839,-0.416397 0.04727,-0.0022 0.08901,-0.0039 0.09276,-0.004 0.0065,-2.5e-5 0.0069,0.07893 0.0078,1.578099 l 9.86e-4,1.578125 -0.492188,-2.99e-4 c -0.47911,-2.91e-4 -0.493069,-5.07e-4 -0.52539,-0.0082 z"
     id="path2517" />
  <path
     style="fill:#ffb380;stroke-width:0.000390625"
     d=""
     id="path2556" />
  <path
     style="fill:#ffb380;stroke-width:0.000390625"
     d=""
     id="path2595" />
  <path
     style="fill:#ffb380;stroke-width:0.000390625"
     d="M 9.6757813,19.548802 C 9.2377918,19.412247 8.9125926,19.283693 8.5625,19.108711 7.9757258,18.815432 7.3538683,18.419539 7.2389102,18.266075 c -0.012218,-0.01631 -0.010976,-0.03592 0.00375,-0.05926 0.038446,-0.06091 0.1781738,-0.199329 0.3237424,-0.320719 0.1728018,-0.144101 0.3088504,-0.230671 0.5664063,-0.360417 0.4373835,-0.220335 0.8723229,-0.39158 1.3847656,-0.545212 0.1251198,-0.03751 0.2750986,-0.08016 0.2810952,-0.07992 0.011966,4.61e-4 -0.025184,0.01348 -0.1053139,0.03692 -0.678729,0.198485 -1.3384801,0.461792 -1.7519532,0.699207 -0.1091841,0.06269 -0.2810028,0.183144 -0.3805809,0.2668 -0.1783098,0.1498 -0.3030128,0.290182 -0.3030128,0.34111 0,0.04726 0.1159035,0.151843 0.3183594,0.287274 0.251803,0.168442 0.5813953,0.355473 0.9617247,0.545743 0.4542645,0.227258 0.6937756,0.324143 1.1359315,0.459498 0.1055417,0.03231 0.1446233,0.04738 0.1209543,0.04665 -0.00422,-1.31e-4 -0.057771,-0.01586 -0.1190011,-0.03495 z"
     id="path2634" />
  <path
     style="fill:#ffb380;stroke-width:0.000390625"
     d="m 10.421875,19.787129 c -0.05736,-0.01246 -0.220372,-0.05291 -0.330078,-0.08192 C 9.5358086,19.5582 9.0362968,19.381637 8.6523438,19.196405 8.1812807,18.969148 7.4833161,18.545209 7.2539062,18.347004 c -0.059896,-0.05175 -0.082031,-0.07841 -0.082031,-0.09879 0,-0.02701 0.057142,-0.100205 0.1542969,-0.197652 0.1466925,-0.147133 0.2979419,-0.269553 0.4570312,-0.369918 0.3765603,-0.237562 0.8678919,-0.457594 1.4453125,-0.647251 0.1376577,-0.04521 0.2369828,-0.07537 0.4109273,-0.124771 0.1478596,-0.04199 0.1700798,-0.04739 0.1626769,-0.03953 -0.00249,0.0026 -0.065768,0.02225 -0.140625,0.04357 -0.5250727,0.149575 -0.9941165,0.322272 -1.4032292,0.516654 -0.3337287,0.158565 -0.5831586,0.321148 -0.8363906,0.545176 -0.06969,0.06165 -0.1550431,0.14847 -0.1844585,0.187622 -0.024539,0.03266 -0.046003,0.07476 -0.046007,0.09023 -2.97e-5,0.09799 0.9277068,0.683583 1.5097626,0.952974 0.4588904,0.212387 1.0168616,0.402493 1.5800777,0.538348 0.218373,0.05268 0.210081,0.05048 0.191406,0.05058 -0.0097,5e-5 -0.03252,-0.0032 -0.05078,-0.0071 z"
     id="path2673" />
  <path
     style="fill:#ffb380;stroke-width:0.000390625"
     d="M 9.703125,19.61689 C 9.3644072,19.513392 9.0003714,19.377235 8.7166306,19.247922 8.3003978,19.058227 7.5618404,18.618099 7.265625,18.383226 c -0.0579,-0.04591 -0.1157952,-0.102881 -0.1194838,-0.117578 -0.010216,-0.0407 0.07735,-0.152614 0.2405775,-0.307461 0.1007357,-0.09556 0.1809946,-0.159573 0.3007813,-0.239885 0.4409178,-0.295617 1.0793609,-0.574674 1.7988281,-0.78625 0.1092667,-0.03213 0.3059888,-0.08635 0.3133146,-0.08635 0.00277,0 0.00504,0.0026 0.00504,0.0057 0,0.0034 -0.00661,0.0074 -0.016602,0.01001 -0.2892257,0.07495 -0.6510515,0.190043 -0.9365234,0.297898 -0.5033375,0.190168 -0.9546109,0.418954 -1.2256221,0.621363 -0.1882367,0.140588 -0.4070424,0.353736 -0.4504763,0.438827 -0.018061,0.03538 -0.015422,0.04401 0.026936,0.08802 0.20777,0.215903 1.1527503,0.778163 1.6830698,1.001421 0.2562466,0.107876 0.635947,0.24197 0.8903307,0.314426 0.026425,0.0075 0.031355,0.01018 0.029818,0.01606 -0.00101,0.0039 -0.00296,0.007 -0.00432,0.0069 -0.00136,-9.7e-5 -0.04554,-0.01334 -0.098177,-0.02942 z"
     id="path2712" />
  <path
     style="fill:#ffb380;stroke-width:0.000390625"
     d="M 9.6796875,19.607407 C 9.353493,19.505743 9.0117751,19.378233 8.75,19.260499 8.4264401,19.114977 7.9363998,18.837518 7.5449219,18.578189 7.3541481,18.451814 7.2517295,18.374989 7.1845703,18.307887 c -0.031426,-0.0314 -0.036133,-0.03783 -0.036133,-0.0494 0,-0.02028 0.023293,-0.06241 0.060847,-0.110051 0.040643,-0.05156 0.2030213,-0.214469 0.2711843,-0.272076 0.3571716,-0.30186 1.0215087,-0.628332 1.7667748,-0.868238 0.1801382,-0.05799 0.5274553,-0.158514 0.5476638,-0.158514 0.019574,0 -0.00696,0.0098 -0.080375,0.02956 -0.2306034,0.06219 -0.5343355,0.158444 -0.7672669,0.24315 -0.5505244,0.200199 -1.0426279,0.445721 -1.3317938,0.664465 -0.1888311,0.142843 -0.4014575,0.350948 -0.4409219,0.431544 -0.018495,0.03777 -0.013612,0.0511 0.036795,0.100434 0.065119,0.06373 0.1731991,0.14501 0.3394368,0.255259 0.4276082,0.283589 0.9907839,0.593301 1.3533556,0.744263 0.2256732,0.09396 0.5873311,0.222975 0.8048476,0.287109 0.083858,0.02473 0.095703,0.0289 0.095703,0.03376 0,0.0064 -0.01367,0.003 -0.125,-0.03174 z"
     id="path2751" />
  <path
     style="fill:#ffb380;stroke-width:0.000390625"
     d="M 9.7089844,19.661566 C 8.8206804,19.391434 7.991355,18.971203 7.2519531,18.416553 c -0.06768,-0.05077 -0.1649635,-0.125327 -0.1776686,-0.136166 -0.00639,-0.0055 0.069065,-0.124372 0.117182,-0.184684 0.042178,-0.05287 0.167741,-0.178413 0.2304085,-0.230376 0.3850941,-0.319313 0.9980974,-0.624247 1.7578125,-0.87441 0.1697009,-0.05588 0.391526,-0.121708 0.5483218,-0.162718 0.038393,-0.01004 0.071792,-0.01902 0.074219,-0.01995 0.0025,-9.59e-4 0.00441,0.0022 0.00441,0.0074 0,0.0085 -0.00518,0.01043 -0.085937,0.0318 -0.2889301,0.07645 -0.616069,0.179992 -0.8765169,0.277431 -0.6406723,0.239687 -1.1297274,0.508137 -1.4548802,0.798607 -0.092515,0.08265 -0.1982694,0.199683 -0.255915,0.283216 -0.027971,0.04053 -0.029889,0.0517 -0.012876,0.07496 0.083832,0.114642 0.6934288,0.516342 1.1997972,0.790619 0.4124911,0.223428 0.9201609,0.430158 1.4199219,0.578212 0.058924,0.01746 0.062571,0.0191 0.063736,0.02875 6.798e-4,0.0056 -1.992e-4,0.01011 -0.00195,0.0099 -0.00175,-1.55e-4 -0.043619,-0.01258 -0.093033,-0.0276 z"
     id="path2790" />
  <path
     style="fill:#ffb380;stroke-width:0.000390625"
     d="M 9.7675781,19.55855 C 9.7589881,19.55565 9.6781951,19.53014 9.5880471,19.50188 9.3479238,19.426607 9.2194935,19.380023 9.0390625,19.302756 8.482827,19.064555 7.7746658,18.676244 7.4433594,18.427772 7.3470086,18.355511 7.272513,18.281585 7.2671296,18.252889 c -0.014075,-0.07503 0.3017378,-0.373583 0.5806975,-0.548968 0.3860072,-0.242688 1.0771138,-0.530244 1.7654542,-0.734571 0.1798804,-0.0534 0.1972905,-0.05766 0.1848778,-0.04524 -0.00223,0.0022 -0.05221,0.01807 -0.1110677,0.03521 -0.3744266,0.10902 -0.7544159,0.241608 -1.0679508,0.372636 -0.3767036,0.157426 -0.7042012,0.329216 -0.8925781,0.468206 -0.1614383,0.119113 -0.3902742,0.330466 -0.4384106,0.404916 -0.020889,0.03231 -0.00905,0.05933 0.052539,0.119959 0.043641,0.04296 0.056076,0.05341 0.1241529,0.104382 0.393147,0.294353 1.2978982,0.762916 1.9016134,0.984829 0.058417,0.02147 0.2559829,0.08689 0.3708476,0.122799 0.034912,0.01091 0.063477,0.02154 0.063477,0.02362 0,0.0052 -0.014387,0.0042 -0.033203,-0.0021 z"
     id="path2829" />
  <path
     style="fill:#ffb380;stroke-width:0.000390625"
     d=""
     id="path2868" />
  <path
     style="fill:#ffb380;stroke-width:0.000390625"
     d="M 9.7109375,19.56001 C 9.1392703,19.384596 8.7152629,19.204785 8.2128906,18.924726 7.7144411,18.646854 7.3286479,18.385964 7.2389042,18.266075 c -0.012211,-0.01631 -0.010967,-0.03593 0.00376,-0.05926 0.041585,-0.06588 0.2096483,-0.229654 0.3608518,-0.351645 0.1614203,-0.130234 0.2842335,-0.206376 0.5413292,-0.335614 0.3695165,-0.18575 0.7582229,-0.344082 1.1657021,-0.474826 0.1691976,-0.05429 0.474694,-0.144627 0.4875994,-0.144187 0.013009,4.43e-4 -0.024694,0.01366 -0.1106948,0.03881 -0.716778,0.209596 -1.4321107,0.501287 -1.8194058,0.741899 -0.2558541,0.158952 -0.5449666,0.415682 -0.6008927,0.533588 -0.013009,0.02743 -0.011968,0.03967 0.00567,0.06678 0.092347,0.141877 0.6454004,0.487939 1.2974862,0.811876 0.4324474,0.214826 0.6687559,0.30992 1.0976563,0.441708 0.110458,0.03394 0.1509609,0.04942 0.1268136,0.04848 -0.00422,-1.65e-4 -0.04195,-0.01082 -0.083845,-0.02367 z"
     id="path2907" />
  <path
     style="fill:#ffb380;stroke-width:0.000390625"
     d="M 9.6796875,19.550327 C 9.2147234,19.405892 8.8355446,19.2532 8.4715068,19.063803 7.8972025,18.765011 7.3614671,18.419913 7.2455006,18.274063 c -0.017369,-0.02184 -0.019334,-0.03749 -0.00758,-0.06035 0.028478,-0.05538 0.2074354,-0.230696 0.367019,-0.359558 0.166217,-0.134218 0.2809973,-0.204815 0.5591216,-0.343893 0.4658661,-0.232959 0.9350539,-0.411981 1.506704,-0.574894 0.067502,-0.01924 0.1248096,-0.03491 0.1273496,-0.03482 0.013522,4.58e-4 -0.027234,0.01443 -0.1360067,0.04664 -0.5657626,0.16752 -1.0814393,0.364711 -1.4980469,0.572841 -0.1738494,0.08685 -0.245818,0.127469 -0.3574219,0.201717 -0.2851018,0.189671 -0.5594931,0.45516 -0.5474059,0.529644 0.019167,0.118111 0.6353657,0.510552 1.3599059,0.866089 0.4068173,0.199628 0.6339183,0.289774 1.0625,0.421749 0.099173,0.03054 0.1359503,0.04504 0.1131418,0.04461 -0.00422,-7.9e-5 -0.056013,-0.01516 -0.1150949,-0.03351 z"
     id="path2946" />
  <path
     style="fill:#ffb380;stroke-width:0.000390625"
     d="M 9.7578125,19.595182 C 9.0810555,19.382457 8.6753447,19.208542 8.1347656,18.899435 7.6216571,18.606036 7.1990171,18.313532 7.1992569,18.251981 c 3.628e-4,-0.09311 0.3940912,-0.440814 0.7156373,-0.631987 0.3860399,-0.229518 0.9732553,-0.470133 1.6124496,-0.660712 0.1253702,-0.03738 0.2446414,-0.07037 0.2635897,-0.07291 0.033581,-0.0045 -3.201e-4,0.0071 -0.1333168,0.04545 -0.4285283,0.123705 -0.7431024,0.233731 -1.0724519,0.375105 -0.33402,0.143378 -0.6282315,0.292311 -0.8058679,0.407938 -0.1796167,0.116917 -0.4658475,0.373113 -0.5416728,0.484834 -0.029355,0.04325 -0.018732,0.06831 0.059334,0.139948 0.1384043,0.127014 0.5371332,0.384713 0.935464,0.604593 0.5139497,0.283701 0.8694144,0.432946 1.5048828,0.631839 0.044187,0.01383 0.063477,0.02161 0.063477,0.0256 0,0.0072 0.00128,0.0074 -0.042969,-0.0065 z"
     id="path2985" />
  <path
     style="fill:#ffb380;stroke-width:0.000390625"
     d="M 10.427734,19.788575 C 10.373265,19.7772 10.11648,19.712412 10.003906,19.681641 9.5774657,19.565079 9.194622,19.4346 8.8632813,19.292899 8.3601162,19.077716 7.4791142,18.555757 7.2275478,18.323793 c -0.042429,-0.03912 -0.057667,-0.06195 -0.054477,-0.0816 0.00808,-0.04977 0.1670883,-0.219275 0.3449888,-0.367762 0.1126935,-0.09406 0.2065362,-0.159946 0.3510814,-0.246486 0.4794555,-0.287055 1.1360332,-0.548628 1.8898198,-0.752882 0.037294,-0.0101 0.055933,-0.01157 0.039857,-0.0031 -0.00429,0.0023 -0.058779,0.01857 -0.1210833,0.03626 C 8.945772,17.116038 8.2864039,17.382275 7.875,17.636087 7.6754529,17.759196 7.4453467,17.94079 7.3066406,18.084622 c -0.083518,0.0866 -0.1208994,0.145353 -0.1128627,0.177374 0.00357,0.01421 0.042638,0.05507 0.089425,0.09352 0.2116042,0.173891 0.7097706,0.484163 1.1542969,0.718928 0.5209869,0.275146 1.1972679,0.517248 1.9199222,0.687313 0.06875,0.01618 0.126758,0.03012 0.128906,0.03098 0.01013,0.0041 -0.03435,8.98e-4 -0.05859,-0.0042 z"
     id="path3024" />
  <path
     style="fill:#ffb380;stroke-width:0.000390625"
     d="m 11.931641,10.940774 c -0.118484,-0.0096 -0.175327,-0.01773 -0.243601,-0.03464 -0.157887,-0.0391 -0.323402,-0.114411 -0.481009,-0.218849 -0.08343,-0.05529 -0.155714,-0.114079 -0.222808,-0.181228 -0.08489,-0.08496 -0.142416,-0.157116 -0.208027,-0.260938 -0.03437,-0.05438 -0.09907,-0.185298 -0.121145,-0.245119 -0.1338,-0.3625763 -0.113811,-0.7600958 0.05583,-1.1102071 0.07509,-0.1549714 0.160054,-0.2746352 0.28114,-0.395943 0.114805,-0.1150163 0.22709,-0.1976582 0.368392,-0.2711382 0.215786,-0.1122126 0.420414,-0.1619304 0.666936,-0.1620429 0.08974,-4.09e-5 0.163112,0.00612 0.232101,0.019491 0.197519,0.038282 0.459637,0.172504 0.657615,0.336744 0.05259,0.043627 0.158377,0.149297 0.206547,0.206316 0.187587,0.2220446 0.267248,0.4259279 0.290685,0.7439676 0.0057,0.077301 0.0054,0.3481757 -4.23e-4,0.4028068 -0.0091,0.085598 -0.0313,0.1494524 -0.101511,0.2925058 -0.07681,0.15651 -0.150057,0.26789 -0.254114,0.386421 -0.186603,0.212559 -0.428724,0.364281 -0.7184,0.450177 -0.06355,0.01884 -0.263785,0.04453 -0.339844,0.0436 -0.029,-3.56e-4 -0.05977,-0.0012 -0.06836,-0.0019 z m 0.173828,-0.01307 c 0.30104,-0.02592 0.587054,-0.158384 0.824219,-0.381724 0.363228,-0.342056 0.496083,-0.6474125 0.472933,-1.0869976 -0.02213,-0.4202079 -0.111885,-0.6416529 -0.368089,-0.9081593 -0.317324,-0.3300847 -0.71023,-0.5006479 -1.095078,-0.4753817 -0.294161,0.019312 -0.572929,0.1297962 -0.816407,0.3235659 -0.05923,0.047136 -0.175743,0.1645281 -0.225808,0.2275077 -0.168191,0.211578 -0.266301,0.4388314 -0.306274,0.7094205 -0.01081,0.073156 -0.0097,0.2802684 0.0019,0.3563378 0.03586,0.2354315 0.126182,0.4509627 0.269656,0.6434497 0.255193,0.34237 0.641551,0.559962 1.053534,0.593337 0.03701,0.003 0.148118,0.0022 0.189453,-0.0014 z"
     id="path3063" />
  <path
     style="fill:#ffb380;stroke-width:0.000390625"
     d=""
     id="path3102" />
  <path
     style="fill:#ffb380;stroke-width:0.000390625"
     d="m 11.904297,10.995628 c -0.09232,-0.0074 -0.201492,-0.02538 -0.28125,-0.04633 -0.606356,-0.15922 -1.048746,-0.675398 -1.113069,-1.2987192 -0.0082,-0.079366 -0.0082,-0.2217977 0,-0.3011636 0.0675,-0.6540809 0.550762,-1.1869577 1.1951,-1.3177868 C 11.809611,8.0104065 11.87584,8.0042598 12,8.0042598 c 0.12416,0 0.190389,0.00615 0.294922,0.027372 0.521836,0.1059558 0.948352,0.479305 1.120443,0.9807751 0.05624,0.163873 0.08072,0.3117651 0.08072,0.4875935 0,0.1358447 -0.01223,0.2376524 -0.04354,0.3625935 -0.123765,0.4937711 -0.487212,0.8894371 -0.968168,1.0539931 -0.156345,0.05349 -0.292812,0.07695 -0.460937,0.07925 -0.05479,7.48e-4 -0.108399,6.54e-4 -0.119141,-2.07e-4 z m 0.201734,-0.01344 c 0.207473,-0.02122 0.448332,-0.09573 0.619873,-0.191747 0.114709,-0.06421 0.204179,-0.132148 0.306997,-0.233125 0.251279,-0.24678 0.39891,-0.547889 0.439869,-0.8971617 0.0023,-0.019336 0.0051,-0.072949 0.0064,-0.1191407 0.01374,-0.5071688 -0.232972,-0.9830258 -0.654949,-1.2632699 -0.06849,-0.045485 -0.102675,-0.065409 -0.169922,-0.09903 -0.162356,-0.081174 -0.323853,-0.1326375 -0.488073,-0.1555321 -0.0612,-0.00853 -0.211117,-0.011698 -0.27585,-0.00583 -0.18799,0.017053 -0.372865,0.073074 -0.560296,0.1697815 -0.15115,0.077988 -0.273944,0.1683834 -0.388926,0.2863105 -0.117684,0.1206991 -0.20128,0.2401161 -0.275242,0.3931851 -0.139639,0.2889924 -0.180721,0.6165102 -0.116988,0.9326718 0.08028,0.3982405 0.33568,0.7551425 0.697058,0.9740815 0.169138,0.102471 0.402754,0.180345 0.621208,0.207074 0.05117,0.0063 0.185054,0.0072 0.238843,0.0017 z"
     id="path3141" />
  <path
     style="fill:#ffb380;stroke-width:0.000390625"
     d="m 11.843925,10.988158 c -0.314429,-0.03992 -0.572823,-0.150433 -0.806816,-0.345071 -0.05493,-0.04569 -0.156218,-0.149547 -0.202409,-0.20754 -0.198941,-0.249775 -0.313945,-0.5522688 -0.326721,-0.8593751 -0.01136,-0.2731036 0.03842,-0.5116331 0.155387,-0.7445743 0.171189,-0.3409197 0.462481,-0.6016128 0.821467,-0.7351739 0.09907,-0.036861 0.242487,-0.071547 0.345245,-0.083502 0.05737,-0.00667 0.282474,-0.00667 0.339844,0 0.09074,0.010557 0.21742,0.039893 0.316837,0.073372 0.290397,0.097791 0.560843,0.3024065 0.740599,0.5603257 0.144587,0.2074571 0.23865,0.4643389 0.260993,0.7127557 0.0055,0.060954 0.0054,0.2253363 -1.57e-4,0.2851563 -0.02674,0.2883206 -0.145063,0.5732846 -0.334773,0.8062786 -0.04616,0.05669 -0.157163,0.166606 -0.214233,0.212132 -0.223341,0.178165 -0.47938,0.286565 -0.7595,0.321553 -0.07105,0.0089 -0.277014,0.01112 -0.335763,0.0037 z m 0.291617,-0.0077 c 0.222166,-0.02835 0.45189,-0.10543 0.630083,-0.211425 0.227556,-0.135358 0.43867,-0.363897 0.560438,-0.606696 0.08206,-0.1636246 0.136681,-0.3577637 0.150913,-0.5363957 0.0057,-0.071049 0.0022,-0.2430683 -0.0061,-0.3036647 C 13.445992,9.1414657 13.404916,9.0042211 13.329952,8.8515625 13.213899,8.6152308 13.043136,8.4213008 12.820313,8.2727806 12.630818,8.1464753 12.398854,8.0562819 12.177775,8.022946 c -0.05467,-0.00824 -0.244537,-0.011717 -0.305009,-0.00558 -0.26512,0.026906 -0.563894,0.1489781 -0.782488,0.3197052 -0.113122,0.088351 -0.226784,0.207964 -0.307519,0.3236213 -0.07951,0.1138961 -0.1538,0.2660317 -0.196219,0.4018072 -0.04595,0.1470874 -0.0627,0.2524341 -0.06582,0.4140625 -0.0029,0.1511967 0.0083,0.2549173 0.04211,0.390625 0.08952,0.3588648 0.333066,0.6891338 0.658495,0.8929698 0.173316,0.108557 0.412689,0.192064 0.630962,0.220115 0.05794,0.0074 0.22545,0.0075 0.283253,1.75e-4 z"
     id="path3180" />
  <path
     style="fill:#ffb380;stroke-width:0.000390625"
     d=""
     id="path3219" />
  <path
     style="fill:#ffb380;stroke-width:0.000390625"
     d="m 11.919922,10.958769 c -0.310664,-0.01802 -0.626282,-0.147976 -0.869141,-0.357859 -0.05294,-0.04575 -0.141737,-0.137092 -0.181913,-0.187121 -0.17547,-0.218503 -0.277233,-0.4586122 -0.312786,-0.7380077 -0.0096,-0.075576 -0.0096,-0.242769 5.1e-5,-0.3222267 0.03619,-0.2982259 0.138983,-0.5438117 0.322122,-0.7695702 0.07225,-0.089067 0.197585,-0.2044852 0.298187,-0.2745995 0.185092,-0.1290001 0.423868,-0.2284665 0.626292,-0.2608931 0.06525,-0.010452 0.22086,-0.014547 0.29383,-0.00773 0.274813,0.025665 0.542842,0.1321322 0.776483,0.3084366 0.106346,0.080248 0.226052,0.2000134 0.307778,0.3079304 0.124497,0.1643928 0.205366,0.3514548 0.240828,0.557067 0.01727,0.1001161 0.02143,0.1581405 0.02133,0.297525 -1.43e-4,0.1999458 -0.01032,0.3073977 -0.03702,0.3910571 -0.02372,0.074292 -0.100853,0.2355861 -0.158602,0.3316431 -0.234564,0.390159 -0.622121,0.651828 -1.055947,0.71295 -0.0523,0.0074 -0.169349,0.01595 -0.203125,0.0149 -0.0097,-3.02e-4 -0.04043,-0.0019 -0.06836,-0.0035 z m 0.239255,-0.02523 c 0.125163,-0.0153 0.157971,-0.02207 0.237307,-0.049 0.188895,-0.06413 0.339264,-0.1443 0.478243,-0.254986 0.06403,-0.051 0.182962,-0.170331 0.236171,-0.236974 0.07979,-0.09994 0.147259,-0.20879 0.210528,-0.339667 0.06013,-0.1243747 0.08239,-0.1855916 0.09314,-0.256036 0.0088,-0.057438 0.0075,-0.4100878 -0.0018,-0.4940635 C 13.378024,8.9886476 13.289238,8.7962381 13.068228,8.556217 12.977821,8.4580334 12.889909,8.3835519 12.771484,8.3048076 12.663029,8.2326922 12.561464,8.1787051 12.453125,8.1355828 12.314979,8.0805964 12.221099,8.0618263 12.06435,8.0578519 c -0.25393,-0.00644 -0.476195,0.043697 -0.696259,0.1570512 -0.447921,0.230722 -0.739524,0.6498568 -0.796241,1.1444719 -0.0092,0.079984 -0.0092,0.2256334 -5.7e-5,0.3046875 0.0317,0.2740905 0.133324,0.5156705 0.308834,0.7341355 0.03903,0.04858 0.125321,0.137747 0.172107,0.177837 0.175908,0.150734 0.409539,0.274968 0.621094,0.330268 0.0638,0.01668 0.104641,0.02359 0.183594,0.03106 0.138619,0.01312 0.166,0.01277 0.301755,-0.0038 z"
     id="path3258" />
  <path
     style="fill:#ffb380;stroke-width:0.000390625"
     d="m 11.898438,10.979947 c -0.0054,-7.76e-4 -0.02559,-0.0033 -0.04492,-0.0057 -0.192808,-0.02333 -0.421112,-0.09821 -0.582082,-0.190923 -0.173156,-0.09972 -0.3438,-0.252973 -0.46576,-0.418277 -0.152228,-0.20633 -0.241932,-0.4367846 -0.27515,-0.7068799 -0.0067,-0.054594 -0.0067,-0.246227 5e-6,-0.3027343 0.03449,-0.2902259 0.138924,-0.5458172 0.31202,-0.7636719 0.147003,-0.1850146 0.334822,-0.3320008 0.551341,-0.4314762 0.214282,-0.098447 0.402206,-0.1427426 0.605585,-0.1427426 0.148404,0 0.287514,0.023748 0.436767,0.074564 0.292247,0.099499 0.53639,0.2670274 0.716776,0.4918426 0.171396,0.2136107 0.278248,0.4691777 0.314392,0.7519531 0.0098,0.076749 0.0098,0.2586975 6.6e-5,0.3359375 -0.02973,0.2348047 -0.108648,0.4490437 -0.235264,0.6386717 -0.155308,0.232601 -0.374406,0.421602 -0.613072,0.528856 -0.149532,0.0672 -0.334458,0.117919 -0.499976,0.137128 -0.04556,0.0053 -0.192074,0.0076 -0.220727,0.0034 z m 0.228515,-0.02128 c 0.06494,-0.0054 0.13333,-0.0169 0.207764,-0.03508 0.394788,-0.09642 0.736208,-0.361527 0.942959,-0.732181 0.03399,-0.06094 0.100041,-0.1988683 0.118916,-0.2483282 0.0348,-0.091185 0.04578,-0.1733253 0.05114,-0.3825309 0.0089,-0.3472296 -0.06257,-0.6159166 -0.228016,-0.85733 -0.206038,-0.30064 -0.537288,-0.5333745 -0.889634,-0.6250523 -0.118176,-0.030749 -0.191558,-0.040934 -0.315313,-0.043764 -0.165695,-0.00379 -0.28162,0.01378 -0.430542,0.065253 -0.3243,0.1120902 -0.585165,0.3021152 -0.771195,0.5617709 -0.266446,0.3718983 -0.341377,0.8702402 -0.196175,1.3047091 0.135342,0.4049714 0.452742,0.7366194 0.857756,0.8962654 0.216625,0.08539 0.420102,0.115416 0.652344,0.09627 z"
     id="path3297" />
  <path
     style="fill:#ffb380;stroke-width:0.000390625"
     d="m 11.828125,10.968818 c -0.167679,-0.02503 -0.347346,-0.08163 -0.496094,-0.15629 -0.137517,-0.06902 -0.266117,-0.165629 -0.390625,-0.293452 -0.190644,-0.195721 -0.31979,-0.430943 -0.378286,-0.6889979 -0.02768,-0.1220917 -0.03572,-0.19477 -0.03568,-0.3222656 3.4e-5,-0.1019952 0.004,-0.1550638 0.01756,-0.2353605 0.04551,-0.2692799 0.157284,-0.5115915 0.331103,-0.7177645 0.0602,-0.071403 0.15942,-0.1647188 0.240161,-0.2258646 0.157558,-0.1193198 0.363108,-0.2175265 0.561468,-0.268256 0.112774,-0.028841 0.201387,-0.039643 0.324219,-0.039522 0.152495,1.5e-4 0.271504,0.020003 0.423828,0.070704 0.243814,0.081153 0.449571,0.2066003 0.621153,0.378709 0.214469,0.215126 0.356498,0.492712 0.407908,0.7972245 0.01498,0.08871 0.01905,0.1562496 0.01659,0.2752864 -0.0024,0.1170521 -0.0085,0.1691041 -0.03244,0.2773437 -0.01553,0.070237 -0.05376,0.1893395 -0.08142,0.2536555 -0.143054,0.332608 -0.411043,0.610348 -0.733681,0.760374 -0.138039,0.06419 -0.337677,0.120067 -0.494506,0.138412 -0.079,0.0092 -0.225835,0.0073 -0.301254,-0.0039 z m 0.330078,-0.01173 c 0.45056,-0.05224 0.851376,-0.315695 1.094937,-0.719688 0.03177,-0.0527 0.0873,-0.161732 0.123895,-0.2432554 0.03726,-0.083022 0.05438,-0.151457 0.06448,-0.2578125 0.0069,-0.073044 0.0094,-0.2903719 0.0042,-0.3632812 C 13.42346,9.0650745 13.330432,8.8273599 13.141614,8.5960649 13.098266,8.5429652 12.99029,8.4349708 12.9375,8.3919155 12.683994,8.1851594 12.389783,8.0598127 12.104156,8.0368746 c -0.0828,-0.00665 -0.243471,-0.00283 -0.309234,0.00736 -0.201717,0.031238 -0.460952,0.1423535 -0.645595,0.2767207 -0.284599,0.207107 -0.478035,0.4927319 -0.563048,0.8313915 -0.02754,0.1097098 -0.03914,0.1998967 -0.04197,0.3261718 -0.004,0.180181 0.01671,0.3225594 0.07083,0.4863282 0.109731,0.3320132 0.348192,0.6232872 0.656341,0.8017042 0.189323,0.109617 0.416183,0.180807 0.625494,0.196282 0.06176,0.0046 0.198169,0.0016 0.261225,-0.0057 z"
     id="path3336" />
  <path
     style="fill:#ffb380;stroke-width:0.000390625"
     d="m 11.896484,10.92507 c -0.0828,-0.0072 -0.190902,-0.02882 -0.278788,-0.05588 -0.55282,-0.170171 -0.972815,-0.671201 -1.027753,-1.2260512 -0.0062,-0.062313 -0.005,-0.2281693 0.0021,-0.2896252 0.01828,-0.1594633 0.06562,-0.3162209 0.140363,-0.4648437 0.07,-0.1391858 0.147373,-0.2479356 0.257809,-0.3623568 0.125784,-0.1303225 0.252516,-0.2234363 0.410226,-0.3014048 0.147459,-0.072901 0.287401,-0.1158447 0.455505,-0.139781 0.03749,-0.00534 0.07351,-0.00685 0.159729,-0.00672 0.120437,1.865e-4 0.162785,0.00454 0.263721,0.027128 0.265752,0.059463 0.524133,0.2117814 0.746207,0.439896 0.255056,0.2619944 0.346974,0.4790037 0.372887,0.8803477 0.02864,0.4435717 -0.08615,0.735165 -0.421987,1.071963 -0.249314,0.250028 -0.53999,0.394888 -0.854797,0.425993 -0.037,0.0037 -0.187962,0.0046 -0.225172,0.0013 z m 0.199219,-0.0092 c 0.312906,-0.02646 0.616584,-0.174583 0.87649,-0.42751 0.243086,-0.236556 0.371286,-0.476 0.408922,-0.7637576 0.0085,-0.064968 0.01206,-0.2716019 0.006,-0.3457031 -0.02787,-0.3386115 -0.145688,-0.5992462 -0.375241,-0.830111 -0.222951,-0.2242241 -0.482739,-0.3768012 -0.738397,-0.4336699 -0.107041,-0.02381 -0.257867,-0.033579 -0.365901,-0.0237 -0.457234,0.041812 -0.859688,0.2963202 -1.103183,0.6976418 -0.03721,0.06133 -0.09175,0.1740471 -0.116569,0.2409123 -0.110966,0.2989622 -0.11776,0.6106486 -0.01975,0.9060101 0.07114,0.2143774 0.18412,0.3955194 0.349347,0.5601044 0.214529,0.213696 0.490763,0.356593 0.785396,0.406288 0.100845,0.01701 0.198287,0.0215 0.292923,0.0135 z"
     id="path3375" />
  <path
     style="fill:#ffb380;stroke-width:0.000390625"
     d="m 11.894531,10.911533 c -0.197396,-0.0182 -0.430123,-0.09766 -0.607422,-0.207414 -0.157555,-0.09753 -0.298395,-0.226195 -0.409431,-0.374041 -0.09035,-0.120299 -0.172996,-0.282752 -0.215619,-0.423828 -0.04145,-0.1372083 -0.05821,-0.2510688 -0.05807,-0.3945312 1.57e-4,-0.1563651 0.02168,-0.2864098 0.0723,-0.4369379 0.06888,-0.2048023 0.182738,-0.3900107 0.337379,-0.5488082 0.193007,-0.1981944 0.416297,-0.3285098 0.673947,-0.393326 0.113821,-0.028633 0.211855,-0.040852 0.327708,-0.040845 0.308489,1.91e-5 0.587935,0.1113304 0.871392,0.3470999 0.05856,0.048704 0.181854,0.1721145 0.219104,0.2193016 0.16444,0.2083082 0.248974,0.4213751 0.274952,0.6930102 0.0069,0.072445 0.0079,0.2428615 0.0019,0.3175192 -0.004,0.049408 -0.02006,0.1561939 -0.0269,0.1789238 -0.0022,0.00724 -0.0037,-0.098764 -0.0039,-0.2773438 -3.29e-4,-0.2903773 -0.0028,-0.364658 -0.01457,-0.4296876 C 13.316066,9.0227502 13.214873,8.8250038 13.107567,8.6916843 12.894594,8.4270821 12.583926,8.2175495 12.287639,8.1386775 c -0.161617,-0.043023 -0.344565,-0.044357 -0.545451,-0.00398 -0.170699,0.034311 -0.314622,0.094738 -0.466762,0.195976 -0.07251,0.048251 -0.11962,0.085236 -0.179723,0.1411034 -0.265183,0.2464943 -0.428732,0.5575377 -0.473111,0.8997785 -0.0079,0.061263 -0.009,0.2071942 -0.002,0.2671152 0.0054,0.046202 0.02409,0.1433285 0.03604,0.1875 0.08748,0.3232604 0.28819,0.6125984 0.562128,0.8103344 0.201353,0.145342 0.436636,0.237368 0.66937,0.261808 0.39034,0.04099 0.775103,-0.124433 1.127633,-0.484813 0.118049,-0.120678 0.165927,-0.193448 0.275714,-0.4190578 0.02553,-0.05247 0.04693,-0.092772 0.04755,-0.08956 0.0016,0.00841 -0.02814,0.091375 -0.05178,0.1443218 -0.136038,0.304664 -0.458963,0.615852 -0.787236,0.758622 -0.196558,0.08549 -0.408776,0.121835 -0.605469,0.103705 z"
     id="path3414" />
  <path
     style="fill:#ffb380;stroke-width:0.000390625"
     d="m 11.894531,10.896215 c -0.47385,-0.05227 -0.910067,-0.360049 -1.128827,-0.796448 -0.148875,-0.2969874 -0.184727,-0.5960495 -0.107489,-0.896642 0.08253,-0.3211736 0.284443,-0.62228 0.550669,-0.8211773 0.209414,-0.1564533 0.424478,-0.2398312 0.689554,-0.2673329 0.06401,-0.00664 0.206919,-0.00567 0.259898,0.00177 0.34589,0.048572 0.737478,0.2963265 0.976608,0.6178908 0.09215,0.1239175 0.174819,0.2910286 0.19715,0.3985329 0.01314,0.063277 0.01556,0.131708 0.01556,0.4404328 v 0.3001992 l -0.07396,0.1472625 c -0.04068,0.08099 -0.08491,0.16484 -0.09829,0.186324 -0.05799,0.09308 -0.133688,0.18179 -0.232316,0.272236 -0.140919,0.129228 -0.261768,0.215604 -0.400121,0.285981 -0.130835,0.06655 -0.249369,0.104964 -0.388121,0.125769 -0.04775,0.0072 -0.212681,0.01045 -0.260317,0.0052 z m 0.208985,-0.02712 c 0.176987,-0.008 0.231594,-0.02214 0.396484,-0.102746 0.167285,-0.08178 0.304152,-0.179332 0.444729,-0.316999 0.152065,-0.148916 0.245702,-0.277741 0.324502,-0.446443 0.03311,-0.070893 0.04684,-0.1077741 0.05706,-0.1532946 0.0091,-0.04074 0.01173,-0.2150369 0.0061,-0.4089764 -0.009,-0.3094687 -0.01808,-0.3609864 -0.08821,-0.503101 -0.03558,-0.072095 -0.07662,-0.1375006 -0.125537,-0.2000503 -0.23314,-0.29813 -0.614946,-0.5464366 -0.926263,-0.6023915 -0.09802,-0.017617 -0.239086,-0.018401 -0.35158,-0.00195 -0.320471,0.046856 -0.613724,0.2138454 -0.853476,0.4860038 -0.14292,0.1622376 -0.242673,0.3381219 -0.297974,0.5253907 -0.05901,0.1998351 -0.06755,0.4384801 -0.02283,0.6383146 0.05514,0.2464277 0.191762,0.4867667 0.388577,0.6835817 0.122074,0.122074 0.250126,0.214137 0.400022,0.287595 0.211698,0.103744 0.351158,0.128492 0.648438,0.115069 z"
     id="path3453" />
  <path
     style="fill:#ffb380;stroke-width:0.000390625"
     d="m 11.880859,10.86651 c -0.153808,-0.0096 -0.263821,-0.03868 -0.410156,-0.108338 -0.387319,-0.184361 -0.700003,-0.559199 -0.795029,-0.9530617 -0.0255,-0.1056746 -0.03286,-0.1729214 -0.03256,-0.2972978 4.71e-4,-0.1976169 0.03412,-0.3554532 0.113246,-0.5312368 0.08805,-0.1956052 0.252646,-0.4022355 0.440227,-0.5526544 0.278497,-0.223323 0.620076,-0.329237 0.944043,-0.2927213 0.218743,0.024655 0.488947,0.1565933 0.728516,0.3557263 0.05044,0.041925 0.149715,0.1389605 0.193217,0.188855 0.07618,0.087368 0.130593,0.1679114 0.178148,0.2636718 0.07616,0.1533664 0.08476,0.2139294 0.09008,0.6347657 0.0026,0.2051562 9.64e-4,0.2393202 -0.01428,0.2991466 -0.01609,0.063165 -0.08656,0.2096456 -0.140605,0.2922876 -0.13164,0.201283 -0.319712,0.383812 -0.535078,0.519309 -0.0531,0.03341 -0.203523,0.109343 -0.261719,0.132119 -0.04806,0.01881 -0.109557,0.03464 -0.15625,0.04022 -0.07368,0.0088 -0.265626,0.01398 -0.341797,0.0092 z m 0.306016,-0.02289 c 0.09809,-0.01078 0.156087,-0.02557 0.238043,-0.0607 0.265924,-0.113999 0.551118,-0.353841 0.721938,-0.607137 0.06056,-0.0898 0.117458,-0.1967464 0.136123,-0.2558591 0.02289,-0.072507 0.02356,-0.08392 0.02361,-0.4042969 5.1e-5,-0.3061386 -0.0011,-0.3317574 -0.01767,-0.4031539 -0.0097,-0.041951 -0.02594,-0.083698 -0.06027,-0.1554398 C 13.165601,8.8252854 13.09225,8.7260794 12.961333,8.5954882 12.86394,8.4983371 12.786497,8.4347097 12.677734,8.3624832 12.500237,8.2446113 12.333132,8.1762145 12.167969,8.1538336 c -0.04678,-0.00634 -0.211149,-0.00634 -0.292969,-4e-7 -0.160226,0.012413 -0.226826,0.031293 -0.384632,0.1090344 -0.08667,0.042696 -0.129742,0.067419 -0.199352,0.1144236 -0.182372,0.1231459 -0.33316,0.2844902 -0.452189,0.483846 -0.03085,0.051674 -0.100385,0.1918374 -0.121713,0.2453519 -0.03636,0.091229 -0.04321,0.168171 -0.04021,0.4514977 0.0026,0.2427364 0.0069,0.2777455 0.04635,0.3727884 0.07495,0.1806798 0.207599,0.3710168 0.384023,0.5510328 0.08343,0.08513 0.148382,0.140457 0.206885,0.176233 0.03825,0.02339 0.162981,0.08529 0.227228,0.112763 0.103778,0.04438 0.219356,0.06854 0.376578,0.07872 0.06775,0.0044 0.202108,0.0014 0.268906,-0.0059 z"
     id="path3492" />
  <path
     style="fill:#ffb380;stroke-width:0.000390625"
     d=""
     id="path3531" />
  <path
     style="fill:#ffb380;stroke-width:0.000390625"
     d="m 11.943359,10.847063 c -0.13973,-0.0081 -0.250973,-0.02607 -0.332101,-0.05352 -0.06913,-0.02339 -0.214031,-0.09128 -0.287679,-0.134782 -0.136791,-0.0808 -0.339473,-0.295746 -0.48034,-0.509412 -0.04452,-0.06753 -0.10866,-0.1937185 -0.129953,-0.2556709 -0.03001,-0.087298 -0.03519,-0.156328 -0.03248,-0.4320183 0.0024,-0.2415469 0.0058,-0.2694569 0.04379,-0.3623951 0.02368,-0.057879 0.0911,-0.1914722 0.125991,-0.2496513 0.126848,-0.2115438 0.305416,-0.3899186 0.518042,-0.5174814 0.08991,-0.053943 0.262546,-0.1340559 0.303899,-0.1410299 0.0072,-0.00121 -0.04323,0.026587 -0.11198,0.061765 -0.137954,0.070589 -0.190593,0.1000477 -0.251953,0.1410014 -0.236308,0.1577193 -0.393144,0.3470025 -0.536214,0.647151 -0.05238,0.1098944 -0.06967,0.1647103 -0.077,0.2441407 -0.0052,0.05636 -0.0051,0.3940634 1.07e-4,0.4492187 0.005,0.052309 0.01277,0.09148 0.02647,0.1328125 0.01539,0.046416 0.104415,0.2221076 0.146011,0.2881586 0.220334,0.349875 0.552964,0.59527 0.893176,0.658932 0.08376,0.01567 0.155195,0.02066 0.264248,0.01844 0.251308,-0.0051 0.410944,-0.05527 0.621049,-0.195133 0.168462,-0.11214 0.319234,-0.252329 0.43066,-0.400431 0.13782,-0.183183 0.179614,-0.2698694 0.198386,-0.4114802 0.01397,-0.105378 0.01733,-0.4851131 0.0055,-0.6221079 -0.0077,-0.089648 -0.0257,-0.1509659 -0.07221,-0.2465337 -0.09399,-0.1931286 -0.314049,-0.4259706 -0.554479,-0.5866873 -0.04969,-0.033214 -0.102762,-0.063293 -0.177515,-0.1006037 -0.155151,-0.077439 -0.174454,-0.080798 -0.540981,-0.09414 -0.08795,-0.0032 -0.160495,-0.00641 -0.161221,-0.00714 -0.0023,-0.00232 0.08815,-0.010181 0.168779,-0.014661 0.162255,-0.00901 0.278499,0.00407 0.401322,0.045166 0.312025,0.1044083 0.667872,0.3918553 0.835712,0.675073 0.03215,0.054247 0.07567,0.146993 0.09237,0.1968425 0.02928,0.087381 0.03298,0.1446777 0.03094,0.4779479 -0.0018,0.2899087 -0.0029,0.305544 -0.02635,0.375598 -0.0298,0.088931 -0.117769,0.2367094 -0.208757,0.3506704 -0.176324,0.220839 -0.443592,0.425119 -0.677477,0.517813 -0.106827,0.04234 -0.283605,0.06372 -0.447759,0.05415 z"
     id="path3570" />
  <path
     style="fill:#ffb380;stroke-width:0.000390625"
     d="m 11.865234,10.839511 c -0.105125,-0.01019 -0.194743,-0.02747 -0.259123,-0.04996 -0.07501,-0.02621 -0.24056,-0.105327 -0.297517,-0.14219 -0.100248,-0.06488 -0.24917,-0.212483 -0.364294,-0.361063 -0.08092,-0.104434 -0.126998,-0.176268 -0.176137,-0.274579 -0.05377,-0.1075841 -0.07295,-0.1675869 -0.08051,-0.2519534 -0.0052,-0.057453 -0.0052,-0.4184976 -8.6e-5,-0.4896451 0.0072,-0.099272 0.02076,-0.1403951 0.09582,-0.2896517 0.09198,-0.1829124 0.160512,-0.2807879 0.286736,-0.40953 0.135528,-0.1382323 0.282245,-0.2399761 0.468467,-0.3248677 0.06006,-0.027381 0.11444,-0.049424 0.116598,-0.047266 8.97e-4,8.971e-4 -0.02003,0.013005 -0.0465,0.026907 -0.241566,0.1268498 -0.233909,0.122564 -0.3079,0.172337 -0.116986,0.078696 -0.231393,0.1831898 -0.312633,0.285545 -0.09338,0.1176486 -0.197592,0.2987544 -0.255122,0.4433593 -0.03824,0.096119 -0.04163,0.1271396 -0.04159,0.3807569 4.8e-5,0.3027555 0.002,0.3133037 0.08842,0.4864306 0.0555,0.1111421 0.08654,0.1651071 0.133063,0.2313751 0.207675,0.2958 0.501505,0.508995 0.798014,0.579017 0.105133,0.02483 0.175286,0.0312 0.311954,0.02835 0.138737,-0.0029 0.214297,-0.01299 0.315523,-0.04215 0.241449,-0.06954 0.551616,-0.302921 0.746435,-0.561633 0.140717,-0.186866 0.182987,-0.2847601 0.197243,-0.4568081 0.0068,-0.082281 0.0067,-0.5194417 -9.2e-5,-0.5769791 -0.01045,-0.087934 -0.02606,-0.1413429 -0.06535,-0.2236272 C 13.164566,8.8626091 13.095132,8.7653666 12.988797,8.652575 12.827109,8.4810691 12.655511,8.3540528 12.455078,8.2575172 c -0.130518,-0.062862 -0.168603,-0.06948 -0.470679,-0.081787 -0.07841,-0.00319 -0.153991,-0.00602 -0.167969,-0.00628 l -0.02541,-4.763e-4 0.02148,-0.00307 c 0.07743,-0.011082 0.267273,-0.01527 0.339021,-0.00748 0.166921,0.018127 0.344004,0.089486 0.528167,0.212836 0.200521,0.1343068 0.382415,0.314852 0.486618,0.4830081 0.03197,0.051595 0.08875,0.1696428 0.104862,0.2180148 0.02772,0.083237 0.02766,0.082257 0.02766,0.4355375 0,0.346383 1.12e-4,0.3444002 -0.02337,0.4146261 -0.02723,0.081442 -0.104214,0.2151546 -0.18522,0.3217026 -0.166212,0.218621 -0.422118,0.424208 -0.6586,0.5291 -0.08163,0.03621 -0.154622,0.05467 -0.262527,0.06642 -0.06854,0.0075 -0.226143,0.0074 -0.30388,-1.51e-4 z"
     id="path3609" />
  <path
     style="fill:#ffb380;stroke-width:0.000390625"
     d=""
     id="path3648" />
  <path
     style="fill:#ffb380;stroke-width:0.000390625"
     d="m 11.869141,10.825976 c -0.289877,-0.0291 -0.550423,-0.162389 -0.783378,-0.400747 -0.125894,-0.128813 -0.214645,-0.255273 -0.302388,-0.4308692 -0.08511,-0.1703346 -0.08993,-0.1990915 -0.087,-0.5197504 0.0021,-0.2273401 0.0028,-0.2347417 0.029,-0.3137405 0.01728,-0.052012 0.109045,-0.2381904 0.153418,-0.3112568 0.130962,-0.2156467 0.301582,-0.3819759 0.519652,-0.5065844 0.05443,-0.031099 0.297007,-0.1547437 0.299232,-0.1525188 9.6e-4,9.601e-4 -0.03302,0.02069 -0.0755,0.043844 -0.274222,0.1494469 -0.396684,0.2333424 -0.518766,0.3553924 -0.07021,0.07019 -0.110456,0.1205832 -0.17947,0.2247077 -0.123688,0.1866138 -0.167742,0.2775788 -0.191071,0.3945313 -0.01611,0.08077 -0.01977,0.1427937 -0.01984,0.3359375 -6.7e-5,0.2010343 0.0029,0.2343587 0.02764,0.3085632 0.01513,0.045411 0.06879,0.158471 0.106661,0.224713 0.172602,0.301946 0.45474,0.558114 0.736726,0.668914 0.122706,0.04821 0.245786,0.06887 0.410087,0.06882 0.162248,-5e-5 0.275944,-0.01919 0.396484,-0.06676 0.26902,-0.10616 0.576531,-0.363162 0.74737,-0.624612 0.0382,-0.05846 0.08679,-0.151456 0.100198,-0.1917694 0.02498,-0.07509 0.02549,-0.083683 0.02536,-0.4230201 -10e-5,-0.2639556 -10e-4,-0.3137094 -0.0067,-0.3574218 -0.01258,-0.097303 -0.03453,-0.1497879 -0.11046,-0.2641213 C 13.035087,8.7205978 12.898101,8.574338 12.743854,8.4584083 12.587913,8.3412055 12.491344,8.2841755 12.394531,8.2521131 c -0.09606,-0.031814 -0.181408,-0.042507 -0.552734,-0.069254 -0.05371,-0.00387 -0.09341,-0.00764 -0.08823,-0.00839 0.01267,-0.00182 0.346519,0.010298 0.420257,0.015253 0.147589,0.00992 0.214632,0.032272 0.388672,0.1295934 0.214405,0.1198932 0.451687,0.3379914 0.583312,0.5361515 0.03566,0.053691 0.08663,0.1554362 0.103711,0.2070312 0.02615,0.078995 0.031,0.129151 0.03422,0.3535156 0.0026,0.1813007 -0.0022,0.3423028 -0.01231,0.4136057 -0.01881,0.1325596 -0.05415,0.2083525 -0.174549,0.3743995 -0.128638,0.177403 -0.303579,0.338706 -0.499413,0.460477 -0.144745,0.09 -0.260684,0.132334 -0.427543,0.156096 -0.05093,0.0073 -0.24717,0.01076 -0.300781,0.0054 z"
     id="path3687" />
  <path
     style="fill:#ffb380;stroke-width:0.000390625"
     d="m 11.861328,10.823808 c -0.0064,-9.47e-4 -0.03018,-0.0044 -0.05273,-0.0078 -0.114969,-0.01699 -0.232872,-0.05494 -0.34375,-0.110648 -0.130963,-0.0658 -0.239334,-0.146085 -0.361602,-0.267879 -0.0763,-0.076 -0.121072,-0.127961 -0.174438,-0.202433 -0.07712,-0.10762 -0.173596,-0.2874317 -0.203667,-0.3795982 -0.02177,-0.066726 -0.02287,-0.080504 -0.02479,-0.3103004 -0.0024,-0.2902402 0.001,-0.324578 0.04244,-0.4221215 0.02133,-0.05024 0.10048,-0.2081142 0.127297,-0.2539063 0.06345,-0.1083482 0.137166,-0.2034725 0.227162,-0.2931448 0.118967,-0.1185399 0.218153,-0.1888255 0.397524,-0.2816969 0.04178,-0.02163 0.07674,-0.038546 0.07769,-0.037592 9.54e-4,9.54e-4 -0.03122,0.020504 -0.0715,0.043445 -0.194043,0.1105229 -0.300404,0.1884465 -0.409444,0.2999712 -0.06298,0.064418 -0.1,0.11074 -0.160606,0.2009863 -0.165977,0.2471435 -0.204771,0.3471558 -0.216545,0.5582658 -0.0058,0.103884 -0.0021,0.3784611 0.0057,0.421875 0.01088,0.060785 0.04134,0.1372398 0.09842,0.2470688 0.183877,0.353774 0.527781,0.657549 0.847558,0.748657 0.171226,0.04879 0.421447,0.05459 0.598056,0.01386 0.169724,-0.03913 0.359345,-0.144213 0.552245,-0.30603 0.04733,-0.03971 0.15536,-0.146003 0.194964,-0.191841 0.09416,-0.108983 0.146922,-0.18735 0.201199,-0.2988282 0.03416,-0.070159 0.04421,-0.1067718 0.04912,-0.1789474 0.0049,-0.071554 0.0051,-0.54194 3.17e-4,-0.6159744 -0.0081,-0.1246481 -0.03082,-0.1866902 -0.11461,-0.3125 C 13.011072,8.6820835 12.856817,8.5290263 12.632844,8.3761938 12.483507,8.2742915 12.385244,8.2351001 12.228547,8.214944 c -0.06277,-0.00807 -0.189401,-0.019593 -0.308133,-0.02803 -0.05346,-0.0038 -0.09523,-0.00756 -0.09284,-0.00836 0.0067,-0.00223 0.316683,0.010441 0.369721,0.015112 0.122058,0.010749 0.186491,0.031565 0.319676,0.1032715 0.155864,0.083917 0.297691,0.190804 0.430484,0.3244299 0.08709,0.087636 0.16698,0.1856789 0.211904,0.2600531 0.02974,0.049239 0.07603,0.1459373 0.08994,0.1878676 0.02534,0.076405 0.03179,0.1625068 0.03191,0.4253716 1.37e-4,0.3184865 -0.01111,0.4047228 -0.06797,0.5209413 -0.02486,0.05082 -0.07352,0.127239 -0.125829,0.197621 -0.09452,0.127174 -0.217604,0.250945 -0.348858,0.350806 -0.196267,0.149326 -0.358471,0.223078 -0.555693,0.252666 -0.03886,0.0058 -0.292071,0.01141 -0.321498,0.0071 z"
     id="path3726" />
</svg>
