<?xml version="1.0" encoding="UTF-8" standalone="no"?>
<svg
   viewBox="0 0 24 24"
   version="1.1"
   id="svg4"
   sodipodi:docname="magnify.svg"
   inkscape:version="1.1.2 (0a00cf5339, 2022-02-04)"
   xmlns:inkscape="http://www.inkscape.org/namespaces/inkscape"
   xmlns:sodipodi="http://sodipodi.sourceforge.net/DTD/sodipodi-0.dtd"
   xmlns="http://www.w3.org/2000/svg"
   xmlns:svg="http://www.w3.org/2000/svg">
  <defs
     id="defs8" />
  <sodipodi:namedview
     id="namedview6"
     pagecolor="#ffffff"
     bordercolor="#666666"
     borderopacity="1.0"
     inkscape:pageshadow="2"
     inkscape:pageopacity="0.0"
     inkscape:pagecheckerboard="0"
     showgrid="false"
     inkscape:zoom="35.166667"
     inkscape:cx="12"
     inkscape:cy="12.014218"
     inkscape:window-width="1850"
     inkscape:window-height="1016"
     inkscape:window-x="70"
     inkscape:window-y="27"
     inkscape:window-maximized="1"
     inkscape:current-layer="svg4" />
  <path
     d="M9.5,3A6.5,6.5 0 0,1 16,9.5C16,11.11 15.41,12.59 14.44,13.73L14.71,14H15.5L20.5,19L19,20.5L14,15.5V14.71L13.73,14.44C12.59,15.41 11.11,16 9.5,16A6.5,6.5 0 0,1 3,9.5A6.5,6.5 0 0,1 9.5,3M9.5,5C7,5 5,7 5,9.5C5,12 7,14 9.5,14C12,14 14,12 14,9.5C14,7 12,5 9.5,5Z"
     id="path2" />
  <path
     style="fill:#ffffff;stroke-width:0.0028436"
     d="M 8.8293839,13.936723 C 7.3481155,13.692529 6.1426525,12.811008 5.4810082,11.488152 5.1267359,10.779838 4.9580196,9.9030162 5.0312211,9.1505991 5.0947686,8.497413 5.2154464,8.0616574 5.4863676,7.507109 5.7078016,7.0538562 5.9480886,6.7205074 6.3270142,6.3408852 6.9254959,5.7413031 7.5722958,5.3674407 8.3617786,5.1647532 10.429009,4.6340236 12.55329,5.5922784 13.504278,7.4845146 c 0.777048,1.5461397 0.595319,3.4041364 -0.466688,4.7714094 -0.64036,0.824426 -1.583359,1.412512 -2.625498,1.637348 -0.352341,0.07602 -1.2377272,0.100323 -1.5827081,0.04345 z"
     id="path862" />
</svg>
